<svg width="419" height="48" viewBox="0 0 419 48" fill="none" xmlns="http://www.w3.org/2000/svg">
<path d="M0.184 12V0.799999H4.12C4.90933 0.799999 5.56 0.927999 6.072 1.184C6.59467 1.42933 6.984 1.77067 7.24 2.208C7.496 2.63467 7.624 3.11467 7.624 3.648C7.624 4.37333 7.42667 4.944 7.032 5.36C6.648 5.776 6.184 6.064 5.64 6.224C6.056 6.29867 6.43467 6.464 6.776 6.72C7.11733 6.976 7.384 7.296 7.576 7.68C7.77867 8.064 7.88 8.48533 7.88 8.944C7.88 9.50933 7.74133 10.0267 7.464 10.496C7.18667 10.9547 6.776 11.3227 6.232 11.6C5.688 11.8667 5.02667 12 4.248 12H0.184ZM1.528 5.696H4.024C4.73867 5.696 5.288 5.53067 5.672 5.2C6.056 4.85867 6.248 4.38933 6.248 3.792C6.248 3.22667 6.056 2.77333 5.672 2.432C5.29867 2.09067 4.73333 1.92 3.976 1.92H1.528V5.696ZM1.528 10.88H4.104C4.872 10.88 5.464 10.704 5.88 10.352C6.296 9.98933 6.504 9.488 6.504 8.848C6.504 8.21867 6.28533 7.71733 5.848 7.344C5.41067 6.96 4.81867 6.768 4.072 6.768H1.528V10.88ZM13.297 12.192C12.5397 12.192 11.8677 12.0213 11.281 11.68C10.6943 11.328 10.2303 10.8427 9.889 10.224C9.55833 9.60533 9.393 8.87467 9.393 8.032C9.393 7.2 9.55833 6.47467 9.889 5.856C10.2197 5.22667 10.6783 4.74133 11.265 4.4C11.8623 4.048 12.5503 3.872 13.329 3.872C14.097 3.872 14.7583 4.048 15.313 4.4C15.8783 4.74133 16.3103 5.19467 16.609 5.76C16.9077 6.32533 17.057 6.93333 17.057 7.584C17.057 7.70133 17.0517 7.81867 17.041 7.936C17.041 8.05333 17.041 8.18667 17.041 8.336H10.721C10.753 8.944 10.8917 9.45067 11.137 9.856C11.393 10.2507 11.7077 10.5493 12.081 10.752C12.465 10.9547 12.8703 11.056 13.297 11.056C13.8517 11.056 14.3157 10.928 14.689 10.672C15.0623 10.416 15.3343 10.0693 15.505 9.632H16.833C16.6197 10.368 16.209 10.9813 15.601 11.472C15.0037 11.952 14.2357 12.192 13.297 12.192ZM13.297 5.008C12.657 5.008 12.0863 5.20533 11.585 5.6C11.0943 5.984 10.8117 6.54933 10.737 7.296H15.729C15.697 6.58133 15.4517 6.02133 14.993 5.616C14.5343 5.21067 13.969 5.008 13.297 5.008ZM21.8784 12.192C20.929 12.192 20.1397 11.952 19.5104 11.472C18.881 10.992 18.513 10.3413 18.4064 9.52H19.7824C19.8677 9.936 20.0864 10.2987 20.4384 10.608C20.801 10.9067 21.2864 11.056 21.8944 11.056C22.4597 11.056 22.8757 10.9387 23.1424 10.704C23.409 10.4587 23.5424 10.1707 23.5424 9.84C23.5424 9.36 23.3664 9.04 23.0144 8.88C22.673 8.72 22.1877 8.576 21.5584 8.448C21.1317 8.36267 20.705 8.24 20.2784 8.08C19.8517 7.92 19.4944 7.696 19.2064 7.408C18.9184 7.10933 18.7744 6.72 18.7744 6.24C18.7744 5.54667 19.0304 4.98133 19.5424 4.544C20.065 4.096 20.769 3.872 21.6544 3.872C22.497 3.872 23.185 4.08533 23.7184 4.512C24.2624 4.928 24.577 5.52533 24.6624 6.304H23.3344C23.281 5.89867 23.105 5.584 22.8064 5.36C22.5184 5.12533 22.129 5.008 21.6384 5.008C21.1584 5.008 20.785 5.10933 20.5184 5.312C20.2624 5.51467 20.1344 5.78133 20.1344 6.112C20.1344 6.432 20.2997 6.68267 20.6304 6.864C20.9717 7.04533 21.4304 7.2 22.0064 7.328C22.497 7.43467 22.961 7.568 23.3984 7.728C23.8464 7.87733 24.209 8.10667 24.4864 8.416C24.7744 8.71467 24.9184 9.152 24.9184 9.728C24.929 10.4427 24.657 11.0347 24.1024 11.504C23.5584 11.9627 22.817 12.192 21.8784 12.192ZM29.615 12C28.8897 12 28.319 11.824 27.903 11.472C27.487 11.12 27.279 10.4853 27.279 9.568V5.2H25.903V4.064H27.279L27.455 2.16H28.623V4.064H30.959V5.2H28.623V9.568C28.623 10.0693 28.7243 10.4107 28.927 10.592C29.1297 10.7627 29.487 10.848 29.999 10.848H30.831V12H29.615ZM37.3329 12V5.2H36.1329V4.064H37.3329V2.688C37.3329 1.92 37.5249 1.36 37.9089 1.008C38.2929 0.656 38.8529 0.48 39.5889 0.48H40.3889V1.632H39.7969C39.3915 1.632 39.1035 1.71733 38.9329 1.888C38.7622 2.048 38.6769 2.32533 38.6769 2.72V4.064H40.6289V5.2H38.6769V12H37.3329ZM45.5325 12.192C44.7858 12.192 44.1138 12.0213 43.5165 11.68C42.9192 11.3387 42.4445 10.8587 42.0925 10.24C41.7512 9.61067 41.5805 8.87467 41.5805 8.032C41.5805 7.18933 41.7565 6.45867 42.1085 5.84C42.4605 5.21067 42.9352 4.72533 43.5325 4.384C44.1405 4.04267 44.8178 3.872 45.5645 3.872C46.3112 3.872 46.9832 4.04267 47.5805 4.384C48.1778 4.72533 48.6472 5.21067 48.9885 5.84C49.3405 6.45867 49.5165 7.18933 49.5165 8.032C49.5165 8.87467 49.3405 9.61067 48.9885 10.24C48.6365 10.8587 48.1565 11.3387 47.5485 11.68C46.9512 12.0213 46.2792 12.192 45.5325 12.192ZM45.5325 11.04C45.9912 11.04 46.4178 10.928 46.8125 10.704C47.2072 10.48 47.5272 10.144 47.7725 9.696C48.0178 9.248 48.1405 8.69333 48.1405 8.032C48.1405 7.37067 48.0178 6.816 47.7725 6.368C47.5378 5.92 47.2232 5.584 46.8285 5.36C46.4338 5.136 46.0125 5.024 45.5645 5.024C45.1058 5.024 44.6792 5.136 44.2845 5.36C43.8898 5.584 43.5698 5.92 43.3245 6.368C43.0792 6.816 42.9565 7.37067 42.9565 8.032C42.9565 8.69333 43.0792 9.248 43.3245 9.696C43.5698 10.144 43.8845 10.48 44.2685 10.704C44.6632 10.928 45.0845 11.04 45.5325 11.04ZM51.3853 12V4.064H52.6013L52.7133 5.584C52.9586 5.06133 53.3319 4.64533 53.8333 4.336C54.3346 4.02667 54.9533 3.872 55.6893 3.872V5.28H55.3213C54.8519 5.28 54.4199 5.36533 54.0253 5.536C53.6306 5.696 53.3159 5.97333 53.0813 6.368C52.8466 6.76267 52.7293 7.30667 52.7293 8V12H51.3853ZM64.0721 12.192C63.4108 12.192 62.8615 12.08 62.4241 11.856C61.9868 11.632 61.6615 11.3333 61.4481 10.96C61.2348 10.5867 61.1281 10.1813 61.1281 9.744C61.1281 8.93333 61.4375 8.30933 62.0561 7.872C62.6748 7.43467 63.5175 7.216 64.5841 7.216H66.7281V7.12C66.7281 6.42667 66.5468 5.904 66.1841 5.552C65.8215 5.18933 65.3361 5.008 64.7281 5.008C64.2055 5.008 63.7521 5.14133 63.3681 5.408C62.9948 5.664 62.7601 6.04267 62.6641 6.544H61.2881C61.3415 5.968 61.5335 5.48267 61.8641 5.088C62.2055 4.69333 62.6268 4.39467 63.1281 4.192C63.6295 3.97867 64.1628 3.872 64.7281 3.872C65.8375 3.872 66.6695 4.17067 67.2241 4.768C67.7895 5.35467 68.0721 6.13867 68.0721 7.12V12H66.8721L66.7921 10.576C66.5681 11.024 66.2375 11.408 65.8001 11.728C65.3735 12.0373 64.7975 12.192 64.0721 12.192ZM64.2801 11.056C64.7921 11.056 65.2295 10.9227 65.5921 10.656C65.9655 10.3893 66.2481 10.0427 66.4401 9.616C66.6321 9.18933 66.7281 8.74133 66.7281 8.272V8.256H64.6961C63.9068 8.256 63.3468 8.39467 63.0161 8.672C62.6961 8.93867 62.5361 9.27467 62.5361 9.68C62.5361 10.096 62.6855 10.432 62.9841 10.688C63.2935 10.9333 63.7255 11.056 64.2801 11.056ZM73.7364 12.192C72.979 12.192 72.2964 12.0213 71.6884 11.68C71.091 11.328 70.6164 10.8427 70.2644 10.224C69.923 9.59467 69.7524 8.864 69.7524 8.032C69.7524 7.2 69.923 6.47467 70.2644 5.856C70.6164 5.22667 71.091 4.74133 71.6884 4.4C72.2964 4.048 72.979 3.872 73.7364 3.872C74.675 3.872 75.4644 4.11733 76.1044 4.608C76.755 5.09867 77.1657 5.75467 77.3364 6.576H75.9604C75.8537 6.08533 75.5924 5.70667 75.1764 5.44C74.7604 5.16267 74.275 5.024 73.7204 5.024C73.2724 5.024 72.851 5.136 72.4564 5.36C72.0617 5.584 71.7417 5.92 71.4964 6.368C71.251 6.816 71.1284 7.37067 71.1284 8.032C71.1284 8.69333 71.251 9.248 71.4964 9.696C71.7417 10.144 72.0617 10.4853 72.4564 10.72C72.851 10.944 73.2724 11.056 73.7204 11.056C74.275 11.056 74.7604 10.9227 75.1764 10.656C75.5924 10.3787 75.8537 9.98933 75.9604 9.488H77.3364C77.1764 10.288 76.771 10.9387 76.1204 11.44C75.4697 11.9413 74.675 12.192 73.7364 12.192ZM82.1306 12C81.4053 12 80.8346 11.824 80.4186 11.472C80.0026 11.12 79.7946 10.4853 79.7946 9.568V5.2H78.4186V4.064H79.7946L79.9706 2.16H81.1386V4.064H83.4746V5.2H81.1386V9.568C81.1386 10.0693 81.24 10.4107 81.4426 10.592C81.6453 10.7627 82.0026 10.848 82.5146 10.848H83.3466V12H82.1306ZM85.9981 2.304C85.7315 2.304 85.5075 2.21867 85.3261 2.048C85.1555 1.86667 85.0701 1.64267 85.0701 1.376C85.0701 1.12 85.1555 0.906666 85.3261 0.735999C85.5075 0.565333 85.7315 0.48 85.9981 0.48C86.2541 0.48 86.4728 0.565333 86.6541 0.735999C86.8355 0.906666 86.9261 1.12 86.9261 1.376C86.9261 1.64267 86.8355 1.86667 86.6541 2.048C86.4728 2.21867 86.2541 2.304 85.9981 2.304ZM85.3261 12V4.064H86.6701V12H85.3261ZM91.2983 12L88.2903 4.064H89.6983L92.0823 10.704L94.4823 4.064H95.8583L92.8503 12H91.2983ZM100.516 12.192C99.7584 12.192 99.0864 12.0213 98.4998 11.68C97.9131 11.328 97.4491 10.8427 97.1078 10.224C96.7771 9.60533 96.6118 8.87467 96.6118 8.032C96.6118 7.2 96.7771 6.47467 97.1078 5.856C97.4384 5.22667 97.8971 4.74133 98.4838 4.4C99.0811 4.048 99.7691 3.872 100.548 3.872C101.316 3.872 101.977 4.048 102.532 4.4C103.097 4.74133 103.529 5.19467 103.828 5.76C104.126 6.32533 104.276 6.93333 104.276 7.584C104.276 7.70133 104.27 7.81867 104.26 7.936C104.26 8.05333 104.26 8.18667 104.26 8.336H97.9398C97.9718 8.944 98.1104 9.45067 98.3558 9.856C98.6118 10.2507 98.9264 10.5493 99.2998 10.752C99.6838 10.9547 100.089 11.056 100.516 11.056C101.07 11.056 101.534 10.928 101.908 10.672C102.281 10.416 102.553 10.0693 102.724 9.632H104.052C103.838 10.368 103.428 10.9813 102.82 11.472C102.222 11.952 101.454 12.192 100.516 12.192ZM100.516 5.008C99.8758 5.008 99.3051 5.20533 98.8038 5.6C98.3131 5.984 98.0304 6.54933 97.9557 7.296H102.948C102.916 6.58133 102.67 6.02133 102.212 5.616C101.753 5.21067 101.188 5.008 100.516 5.008ZM110.724 12V5.2H109.524V4.064H110.724V2.688C110.724 1.92 110.916 1.36 111.299 1.008C111.684 0.656 112.244 0.48 112.98 0.48H113.78V1.632H113.188C112.782 1.632 112.494 1.71733 112.324 1.888C112.153 2.048 112.068 2.32533 112.068 2.72V4.064H114.02V5.2H112.068V12H110.724ZM115.62 12V4.064H116.836L116.948 5.584C117.193 5.06133 117.566 4.64533 118.068 4.336C118.569 4.02667 119.188 3.872 119.924 3.872V5.28H119.556C119.086 5.28 118.654 5.36533 118.26 5.536C117.865 5.696 117.55 5.97333 117.316 6.368C117.081 6.76267 116.964 7.30667 116.964 8V12H115.62ZM124.703 12.192C123.946 12.192 123.274 12.0213 122.687 11.68C122.101 11.328 121.637 10.8427 121.295 10.224C120.965 9.60533 120.799 8.87467 120.799 8.032C120.799 7.2 120.965 6.47467 121.295 5.856C121.626 5.22667 122.085 4.74133 122.671 4.4C123.269 4.048 123.957 3.872 124.735 3.872C125.503 3.872 126.165 4.048 126.719 4.4C127.285 4.74133 127.717 5.19467 128.015 5.76C128.314 6.32533 128.463 6.93333 128.463 7.584C128.463 7.70133 128.458 7.81867 128.447 7.936C128.447 8.05333 128.447 8.18667 128.447 8.336H122.127C122.159 8.944 122.298 9.45067 122.543 9.856C122.799 10.2507 123.114 10.5493 123.487 10.752C123.871 10.9547 124.277 11.056 124.703 11.056C125.258 11.056 125.722 10.928 126.095 10.672C126.469 10.416 126.741 10.0693 126.911 9.632H128.239C128.026 10.368 127.615 10.9813 127.007 11.472C126.41 11.952 125.642 12.192 124.703 12.192ZM124.703 5.008C124.063 5.008 123.493 5.20533 122.991 5.6C122.501 5.984 122.218 6.54933 122.143 7.296H127.135C127.103 6.58133 126.858 6.02133 126.399 5.616C125.941 5.21067 125.375 5.008 124.703 5.008ZM133.813 12.192C133.055 12.192 132.383 12.0213 131.797 11.68C131.21 11.328 130.746 10.8427 130.405 10.224C130.074 9.60533 129.909 8.87467 129.909 8.032C129.909 7.2 130.074 6.47467 130.405 5.856C130.735 5.22667 131.194 4.74133 131.781 4.4C132.378 4.048 133.066 3.872 133.845 3.872C134.613 3.872 135.274 4.048 135.829 4.4C136.394 4.74133 136.826 5.19467 137.125 5.76C137.423 6.32533 137.573 6.93333 137.573 7.584C137.573 7.70133 137.567 7.81867 137.557 7.936C137.557 8.05333 137.557 8.18667 137.557 8.336H131.237C131.269 8.944 131.407 9.45067 131.653 9.856C131.909 10.2507 132.223 10.5493 132.597 10.752C132.981 10.9547 133.386 11.056 133.813 11.056C134.367 11.056 134.831 10.928 135.205 10.672C135.578 10.416 135.85 10.0693 136.021 9.632H137.349C137.135 10.368 136.725 10.9813 136.117 11.472C135.519 11.952 134.751 12.192 133.813 12.192ZM133.813 5.008C133.173 5.008 132.602 5.20533 132.101 5.6C131.61 5.984 131.327 6.54933 131.253 7.296H136.245C136.213 6.58133 135.967 6.02133 135.509 5.616C135.05 5.21067 134.485 5.008 133.813 5.008ZM139.354 12V0.48H140.698V12H139.354ZM145.541 12.192C144.88 12.192 144.33 12.08 143.893 11.856C143.456 11.632 143.13 11.3333 142.917 10.96C142.704 10.5867 142.597 10.1813 142.597 9.744C142.597 8.93333 142.906 8.30933 143.525 7.872C144.144 7.43467 144.986 7.216 146.053 7.216H148.197V7.12C148.197 6.42667 148.016 5.904 147.653 5.552C147.29 5.18933 146.805 5.008 146.197 5.008C145.674 5.008 145.221 5.14133 144.837 5.408C144.464 5.664 144.229 6.04267 144.133 6.544H142.757C142.81 5.968 143.002 5.48267 143.333 5.088C143.674 4.69333 144.096 4.39467 144.597 4.192C145.098 3.97867 145.632 3.872 146.197 3.872C147.306 3.872 148.138 4.17067 148.693 4.768C149.258 5.35467 149.541 6.13867 149.541 7.12V12H148.341L148.261 10.576C148.037 11.024 147.706 11.408 147.269 11.728C146.842 12.0373 146.266 12.192 145.541 12.192ZM145.749 11.056C146.261 11.056 146.698 10.9227 147.061 10.656C147.434 10.3893 147.717 10.0427 147.909 9.616C148.101 9.18933 148.197 8.74133 148.197 8.272V8.256H146.165C145.376 8.256 144.816 8.39467 144.485 8.672C144.165 8.93867 144.005 9.27467 144.005 9.68C144.005 10.096 144.154 10.432 144.453 10.688C144.762 10.9333 145.194 11.056 145.749 11.056ZM151.557 12V4.064H152.773L152.853 5.488C153.109 4.98667 153.477 4.592 153.957 4.304C154.437 4.016 154.981 3.872 155.589 3.872C156.528 3.872 157.274 4.16 157.829 4.736C158.394 5.30133 158.677 6.176 158.677 7.36V12H157.333V7.504C157.333 5.85067 156.65 5.024 155.285 5.024C154.602 5.024 154.032 5.27467 153.573 5.776C153.125 6.26667 152.901 6.97067 152.901 7.888V12H151.557ZM164.361 12.192C163.604 12.192 162.921 12.0213 162.313 11.68C161.716 11.328 161.241 10.8427 160.889 10.224C160.548 9.59467 160.377 8.864 160.377 8.032C160.377 7.2 160.548 6.47467 160.889 5.856C161.241 5.22667 161.716 4.74133 162.313 4.4C162.921 4.048 163.604 3.872 164.361 3.872C165.3 3.872 166.089 4.11733 166.729 4.608C167.38 5.09867 167.791 5.75467 167.961 6.576H166.585C166.479 6.08533 166.217 5.70667 165.801 5.44C165.385 5.16267 164.9 5.024 164.345 5.024C163.897 5.024 163.476 5.136 163.081 5.36C162.687 5.584 162.367 5.92 162.121 6.368C161.876 6.816 161.753 7.37067 161.753 8.032C161.753 8.69333 161.876 9.248 162.121 9.696C162.367 10.144 162.687 10.4853 163.081 10.72C163.476 10.944 163.897 11.056 164.345 11.056C164.9 11.056 165.385 10.9227 165.801 10.656C166.217 10.3787 166.479 9.98933 166.585 9.488H167.961C167.801 10.288 167.396 10.9387 166.745 11.44C166.095 11.9413 165.3 12.192 164.361 12.192ZM173.406 12.192C172.649 12.192 171.977 12.0213 171.39 11.68C170.804 11.328 170.34 10.8427 169.998 10.224C169.668 9.60533 169.502 8.87467 169.502 8.032C169.502 7.2 169.668 6.47467 169.998 5.856C170.329 5.22667 170.788 4.74133 171.374 4.4C171.972 4.048 172.66 3.872 173.438 3.872C174.206 3.872 174.868 4.048 175.422 4.4C175.988 4.74133 176.42 5.19467 176.718 5.76C177.017 6.32533 177.166 6.93333 177.166 7.584C177.166 7.70133 177.161 7.81867 177.15 7.936C177.15 8.05333 177.15 8.18667 177.15 8.336H170.83C170.862 8.944 171.001 9.45067 171.246 9.856C171.502 10.2507 171.817 10.5493 172.19 10.752C172.574 10.9547 172.98 11.056 173.406 11.056C173.961 11.056 174.425 10.928 174.798 10.672C175.172 10.416 175.444 10.0693 175.614 9.632H176.942C176.729 10.368 176.318 10.9813 175.71 11.472C175.113 11.952 174.345 12.192 173.406 12.192ZM173.406 5.008C172.766 5.008 172.196 5.20533 171.694 5.6C171.204 5.984 170.921 6.54933 170.846 7.296H175.838C175.806 6.58133 175.561 6.02133 175.102 5.616C174.644 5.21067 174.078 5.008 173.406 5.008ZM178.948 12V4.064H180.164L180.276 5.584C180.521 5.06133 180.894 4.64533 181.396 4.336C181.897 4.02667 182.516 3.872 183.252 3.872V5.28H182.884C182.414 5.28 181.982 5.36533 181.588 5.536C181.193 5.696 180.878 5.97333 180.644 6.368C180.409 6.76267 180.292 7.30667 180.292 8V12H178.948ZM187.8 12.192C186.851 12.192 186.062 11.952 185.432 11.472C184.803 10.992 184.435 10.3413 184.328 9.52H185.704C185.79 9.936 186.008 10.2987 186.36 10.608C186.723 10.9067 187.208 11.056 187.816 11.056C188.382 11.056 188.798 10.9387 189.064 10.704C189.331 10.4587 189.464 10.1707 189.464 9.84C189.464 9.36 189.288 9.04 188.936 8.88C188.595 8.72 188.11 8.576 187.48 8.448C187.054 8.36267 186.627 8.24 186.2 8.08C185.774 7.92 185.416 7.696 185.128 7.408C184.84 7.10933 184.696 6.72 184.696 6.24C184.696 5.54667 184.952 4.98133 185.464 4.544C185.987 4.096 186.691 3.872 187.576 3.872C188.419 3.872 189.107 4.08533 189.64 4.512C190.184 4.928 190.499 5.52533 190.584 6.304H189.256C189.203 5.89867 189.027 5.584 188.728 5.36C188.44 5.12533 188.051 5.008 187.56 5.008C187.08 5.008 186.707 5.10933 186.44 5.312C186.184 5.51467 186.056 5.78133 186.056 6.112C186.056 6.432 186.222 6.68267 186.552 6.864C186.894 7.04533 187.352 7.2 187.928 7.328C188.419 7.43467 188.883 7.568 189.32 7.728C189.768 7.87733 190.131 8.10667 190.408 8.416C190.696 8.71467 190.84 9.152 190.84 9.728C190.851 10.4427 190.579 11.0347 190.024 11.504C189.48 11.9627 188.739 12.192 187.8 12.192ZM199.635 12.192C198.973 12.192 198.424 12.08 197.987 11.856C197.549 11.632 197.224 11.3333 197.011 10.96C196.797 10.5867 196.691 10.1813 196.691 9.744C196.691 8.93333 197 8.30933 197.619 7.872C198.237 7.43467 199.08 7.216 200.147 7.216H202.291V7.12C202.291 6.42667 202.109 5.904 201.747 5.552C201.384 5.18933 200.899 5.008 200.291 5.008C199.768 5.008 199.315 5.14133 198.931 5.408C198.557 5.664 198.323 6.04267 198.227 6.544H196.851C196.904 5.968 197.096 5.48267 197.427 5.088C197.768 4.69333 198.189 4.39467 198.691 4.192C199.192 3.97867 199.725 3.872 200.291 3.872C201.4 3.872 202.232 4.17067 202.787 4.768C203.352 5.35467 203.635 6.13867 203.635 7.12V12H202.435L202.355 10.576C202.131 11.024 201.8 11.408 201.363 11.728C200.936 12.0373 200.36 12.192 199.635 12.192ZM199.843 11.056C200.355 11.056 200.792 10.9227 201.155 10.656C201.528 10.3893 201.811 10.0427 202.003 9.616C202.195 9.18933 202.291 8.74133 202.291 8.272V8.256H200.259C199.469 8.256 198.909 8.39467 198.579 8.672C198.259 8.93867 198.099 9.27467 198.099 9.68C198.099 10.096 198.248 10.432 198.547 10.688C198.856 10.9333 199.288 11.056 199.843 11.056ZM205.651 12V4.064H206.867L206.947 5.488C207.203 4.98667 207.571 4.592 208.051 4.304C208.531 4.016 209.075 3.872 209.683 3.872C210.622 3.872 211.368 4.16 211.923 4.736C212.488 5.30133 212.771 6.176 212.771 7.36V12H211.427V7.504C211.427 5.85067 210.744 5.024 209.379 5.024C208.696 5.024 208.126 5.27467 207.667 5.776C207.219 6.26667 206.995 6.97067 206.995 7.888V12H205.651ZM218.407 12.192C217.618 12.192 216.924 12.0107 216.327 11.648C215.74 11.2853 215.282 10.7893 214.951 10.16C214.631 9.53067 214.471 8.816 214.471 8.016C214.471 7.216 214.636 6.50667 214.967 5.888C215.298 5.25867 215.756 4.768 216.343 4.416C216.93 4.05333 217.623 3.872 218.423 3.872C219.074 3.872 219.65 4.00533 220.151 4.272C220.652 4.53867 221.042 4.912 221.319 5.392V0.48H222.663V12H221.447L221.319 10.688C221.063 11.072 220.695 11.4187 220.215 11.728C219.735 12.0373 219.132 12.192 218.407 12.192ZM218.551 11.024C219.084 11.024 219.554 10.9013 219.959 10.656C220.375 10.4 220.695 10.048 220.919 9.6C221.154 9.152 221.271 8.62933 221.271 8.032C221.271 7.43467 221.154 6.912 220.919 6.464C220.695 6.016 220.375 5.66933 219.959 5.424C219.554 5.168 219.084 5.04 218.551 5.04C218.028 5.04 217.559 5.168 217.143 5.424C216.738 5.66933 216.418 6.016 216.183 6.464C215.959 6.912 215.847 7.43467 215.847 8.032C215.847 8.62933 215.959 9.152 216.183 9.6C216.418 10.048 216.738 10.4 217.143 10.656C217.559 10.9013 218.028 11.024 218.551 11.024ZM232.688 12.192C231.899 12.192 231.206 12.0107 230.608 11.648C230.022 11.2853 229.563 10.7893 229.232 10.16C228.912 9.53067 228.752 8.816 228.752 8.016C228.752 7.216 228.918 6.50667 229.248 5.888C229.579 5.25867 230.038 4.768 230.624 4.416C231.211 4.05333 231.904 3.872 232.704 3.872C233.355 3.872 233.931 4.00533 234.432 4.272C234.934 4.53867 235.323 4.912 235.6 5.392V0.48H236.944V12H235.728L235.6 10.688C235.344 11.072 234.976 11.4187 234.496 11.728C234.016 12.0373 233.414 12.192 232.688 12.192ZM232.832 11.024C233.366 11.024 233.835 10.9013 234.24 10.656C234.656 10.4 234.976 10.048 235.2 9.6C235.435 9.152 235.552 8.62933 235.552 8.032C235.552 7.43467 235.435 6.912 235.2 6.464C234.976 6.016 234.656 5.66933 234.24 5.424C233.835 5.168 233.366 5.04 232.832 5.04C232.31 5.04 231.84 5.168 231.424 5.424C231.019 5.66933 230.699 6.016 230.464 6.464C230.24 6.912 230.128 7.43467 230.128 8.032C230.128 8.62933 230.24 9.152 230.464 9.6C230.699 10.048 231.019 10.4 231.424 10.656C231.84 10.9013 232.31 11.024 232.832 11.024ZM242.703 12.192C241.946 12.192 241.274 12.0213 240.687 11.68C240.101 11.328 239.637 10.8427 239.295 10.224C238.965 9.60533 238.799 8.87467 238.799 8.032C238.799 7.2 238.965 6.47467 239.295 5.856C239.626 5.22667 240.085 4.74133 240.671 4.4C241.269 4.048 241.957 3.872 242.735 3.872C243.503 3.872 244.165 4.048 244.719 4.4C245.285 4.74133 245.717 5.19467 246.015 5.76C246.314 6.32533 246.463 6.93333 246.463 7.584C246.463 7.70133 246.458 7.81867 246.447 7.936C246.447 8.05333 246.447 8.18667 246.447 8.336H240.127C240.159 8.944 240.298 9.45067 240.543 9.856C240.799 10.2507 241.114 10.5493 241.487 10.752C241.871 10.9547 242.277 11.056 242.703 11.056C243.258 11.056 243.722 10.928 244.095 10.672C244.469 10.416 244.741 10.0693 244.911 9.632H246.239C246.026 10.368 245.615 10.9813 245.007 11.472C244.41 11.952 243.642 12.192 242.703 12.192ZM242.703 5.008C242.063 5.008 241.493 5.20533 240.991 5.6C240.501 5.984 240.218 6.54933 240.143 7.296H245.135C245.103 6.58133 244.858 6.02133 244.399 5.616C243.941 5.21067 243.375 5.008 242.703 5.008ZM251.285 12.192C250.335 12.192 249.546 11.952 248.917 11.472C248.287 10.992 247.919 10.3413 247.813 9.52H249.189C249.274 9.936 249.493 10.2987 249.845 10.608C250.207 10.9067 250.693 11.056 251.301 11.056C251.866 11.056 252.282 10.9387 252.549 10.704C252.815 10.4587 252.949 10.1707 252.949 9.84C252.949 9.36 252.773 9.04 252.421 8.88C252.079 8.72 251.594 8.576 250.965 8.448C250.538 8.36267 250.111 8.24 249.685 8.08C249.258 7.92 248.901 7.696 248.613 7.408C248.325 7.10933 248.181 6.72 248.181 6.24C248.181 5.54667 248.437 4.98133 248.949 4.544C249.471 4.096 250.175 3.872 251.061 3.872C251.903 3.872 252.591 4.08533 253.125 4.512C253.669 4.928 253.983 5.52533 254.069 6.304H252.741C252.687 5.89867 252.511 5.584 252.213 5.36C251.925 5.12533 251.535 5.008 251.045 5.008C250.565 5.008 250.191 5.10933 249.925 5.312C249.669 5.51467 249.541 5.78133 249.541 6.112C249.541 6.432 249.706 6.68267 250.037 6.864C250.378 7.04533 250.837 7.2 251.413 7.328C251.903 7.43467 252.367 7.568 252.805 7.728C253.253 7.87733 253.615 8.10667 253.893 8.416C254.181 8.71467 254.325 9.152 254.325 9.728C254.335 10.4427 254.063 11.0347 253.509 11.504C252.965 11.9627 252.223 12.192 251.285 12.192ZM257.061 2.304C256.794 2.304 256.57 2.21867 256.389 2.048C256.218 1.86667 256.133 1.64267 256.133 1.376C256.133 1.12 256.218 0.906666 256.389 0.735999C256.57 0.565333 256.794 0.48 257.061 0.48C257.317 0.48 257.535 0.565333 257.717 0.735999C257.898 0.906666 257.989 1.12 257.989 1.376C257.989 1.64267 257.898 1.86667 257.717 2.048C257.535 2.21867 257.317 2.304 257.061 2.304ZM256.389 12V4.064H257.733V12H256.389ZM263.209 9.504C262.761 9.504 262.35 9.44533 261.977 9.328L261.177 10.08C261.294 10.1653 261.438 10.24 261.609 10.304C261.79 10.3573 262.046 10.4107 262.377 10.464C262.707 10.5067 263.171 10.5547 263.769 10.608C264.835 10.6827 265.598 10.928 266.057 11.344C266.515 11.76 266.745 12.304 266.745 12.976C266.745 13.4347 266.617 13.872 266.361 14.288C266.115 14.704 265.731 15.0453 265.209 15.312C264.697 15.5787 264.035 15.712 263.225 15.712C262.51 15.712 261.875 15.616 261.321 15.424C260.766 15.2427 260.334 14.96 260.025 14.576C259.715 14.2027 259.561 13.728 259.561 13.152C259.561 12.8533 259.641 12.528 259.801 12.176C259.961 11.8347 260.259 11.5093 260.697 11.2C260.462 11.104 260.259 11.0027 260.089 10.896C259.929 10.7787 259.779 10.6507 259.641 10.512V10.144L261.001 8.8C260.371 8.26667 260.057 7.56267 260.057 6.688C260.057 6.16533 260.179 5.69067 260.425 5.264C260.67 4.83733 261.027 4.50133 261.497 4.256C261.966 4 262.537 3.872 263.209 3.872C263.667 3.872 264.083 3.936 264.457 4.064H267.385V5.072L265.897 5.136C266.206 5.584 266.361 6.10133 266.361 6.688C266.361 7.21067 266.233 7.68533 265.977 8.112C265.731 8.53867 265.374 8.88 264.905 9.136C264.446 9.38133 263.881 9.504 263.209 9.504ZM263.209 8.4C263.774 8.4 264.222 8.256 264.553 7.968C264.894 7.66933 265.065 7.24267 265.065 6.688C265.065 6.144 264.894 5.728 264.553 5.44C264.222 5.14133 263.774 4.992 263.209 4.992C262.633 4.992 262.174 5.14133 261.833 5.44C261.502 5.728 261.337 6.144 261.337 6.688C261.337 7.24267 261.502 7.66933 261.833 7.968C262.174 8.256 262.633 8.4 263.209 8.4ZM260.873 13.024C260.873 13.5573 261.097 13.952 261.545 14.208C261.993 14.4747 262.553 14.608 263.225 14.608C263.886 14.608 264.414 14.464 264.809 14.176C265.214 13.888 265.417 13.504 265.417 13.024C265.417 12.6827 265.278 12.384 265.001 12.128C264.723 11.8827 264.211 11.7387 263.465 11.696C262.878 11.6533 262.371 11.6 261.945 11.536C261.507 11.7707 261.219 12.0213 261.081 12.288C260.942 12.5653 260.873 12.8107 260.873 13.024ZM268.901 12V4.064H270.117L270.197 5.488C270.453 4.98667 270.821 4.592 271.301 4.304C271.781 4.016 272.325 3.872 272.933 3.872C273.872 3.872 274.618 4.16 275.173 4.736C275.738 5.30133 276.021 6.176 276.021 7.36V12H274.677V7.504C274.677 5.85067 273.994 5.024 272.629 5.024C271.946 5.024 271.376 5.27467 270.917 5.776C270.469 6.26667 270.245 6.97067 270.245 7.888V12H268.901ZM281.625 12.192C280.868 12.192 280.196 12.0213 279.609 11.68C279.022 11.328 278.558 10.8427 278.217 10.224C277.886 9.60533 277.721 8.87467 277.721 8.032C277.721 7.2 277.886 6.47467 278.217 5.856C278.548 5.22667 279.006 4.74133 279.593 4.4C280.19 4.048 280.878 3.872 281.657 3.872C282.425 3.872 283.086 4.048 283.641 4.4C284.206 4.74133 284.638 5.19467 284.937 5.76C285.236 6.32533 285.385 6.93333 285.385 7.584C285.385 7.70133 285.38 7.81867 285.369 7.936C285.369 8.05333 285.369 8.18667 285.369 8.336H279.049C279.081 8.944 279.22 9.45067 279.465 9.856C279.721 10.2507 280.036 10.5493 280.409 10.752C280.793 10.9547 281.198 11.056 281.625 11.056C282.18 11.056 282.644 10.928 283.017 10.672C283.39 10.416 283.662 10.0693 283.833 9.632H285.161C284.948 10.368 284.537 10.9813 283.929 11.472C283.332 11.952 282.564 12.192 281.625 12.192ZM281.625 5.008C280.985 5.008 280.414 5.20533 279.913 5.6C279.422 5.984 279.14 6.54933 279.065 7.296H284.057C284.025 6.58133 283.78 6.02133 283.321 5.616C282.862 5.21067 282.297 5.008 281.625 5.008ZM287.167 12V4.064H288.383L288.495 5.584C288.74 5.06133 289.113 4.64533 289.615 4.336C290.116 4.02667 290.735 3.872 291.471 3.872V5.28H291.103C290.633 5.28 290.201 5.36533 289.807 5.536C289.412 5.696 289.097 5.97333 288.863 6.368C288.628 6.76267 288.511 7.30667 288.511 8V12H287.167ZM296.019 12.192C295.07 12.192 294.28 11.952 293.651 11.472C293.022 10.992 292.654 10.3413 292.547 9.52H293.923C294.008 9.936 294.227 10.2987 294.579 10.608C294.942 10.9067 295.427 11.056 296.035 11.056C296.6 11.056 297.016 10.9387 297.283 10.704C297.55 10.4587 297.683 10.1707 297.683 9.84C297.683 9.36 297.507 9.04 297.155 8.88C296.814 8.72 296.328 8.576 295.699 8.448C295.272 8.36267 294.846 8.24 294.419 8.08C293.992 7.92 293.635 7.696 293.347 7.408C293.059 7.10933 292.915 6.72 292.915 6.24C292.915 5.54667 293.171 4.98133 293.683 4.544C294.206 4.096 294.91 3.872 295.795 3.872C296.638 3.872 297.326 4.08533 297.859 4.512C298.403 4.928 298.718 5.52533 298.803 6.304H297.475C297.422 5.89867 297.246 5.584 296.947 5.36C296.659 5.12533 296.27 5.008 295.779 5.008C295.299 5.008 294.926 5.10933 294.659 5.312C294.403 5.51467 294.275 5.78133 294.275 6.112C294.275 6.432 294.44 6.68267 294.771 6.864C295.112 7.04533 295.571 7.2 296.147 7.328C296.638 7.43467 297.102 7.568 297.539 7.728C297.987 7.87733 298.35 8.10667 298.627 8.416C298.915 8.71467 299.059 9.152 299.059 9.728C299.07 10.4427 298.798 11.0347 298.243 11.504C297.699 11.9627 296.958 12.192 296.019 12.192ZM306.813 12L304.493 4.064H305.837L307.517 10.288L309.373 4.064H310.893L312.765 10.288L314.429 4.064H315.789L313.469 12H312.093L310.141 5.456L308.189 12H306.813ZM317.276 12V0.48H318.62V5.424C318.887 4.93333 319.265 4.55467 319.756 4.288C320.247 4.01067 320.78 3.872 321.356 3.872C322.273 3.872 323.009 4.16 323.564 4.736C324.119 5.30133 324.396 6.176 324.396 7.36V12H323.068V7.504C323.068 5.85067 322.401 5.024 321.068 5.024C320.375 5.024 319.793 5.27467 319.324 5.776C318.855 6.26667 318.62 6.97067 318.62 7.888V12H317.276ZM330.048 12.192C329.301 12.192 328.629 12.0213 328.032 11.68C327.435 11.3387 326.96 10.8587 326.608 10.24C326.267 9.61067 326.096 8.87467 326.096 8.032C326.096 7.18933 326.272 6.45867 326.624 5.84C326.976 5.21067 327.451 4.72533 328.048 4.384C328.656 4.04267 329.333 3.872 330.08 3.872C330.827 3.872 331.499 4.04267 332.096 4.384C332.693 4.72533 333.163 5.21067 333.504 5.84C333.856 6.45867 334.032 7.18933 334.032 8.032C334.032 8.87467 333.856 9.61067 333.504 10.24C333.152 10.8587 332.672 11.3387 332.064 11.68C331.467 12.0213 330.795 12.192 330.048 12.192ZM330.048 11.04C330.507 11.04 330.933 10.928 331.328 10.704C331.723 10.48 332.043 10.144 332.288 9.696C332.533 9.248 332.656 8.69333 332.656 8.032C332.656 7.37067 332.533 6.816 332.288 6.368C332.053 5.92 331.739 5.584 331.344 5.36C330.949 5.136 330.528 5.024 330.08 5.024C329.621 5.024 329.195 5.136 328.8 5.36C328.405 5.584 328.085 5.92 327.84 6.368C327.595 6.816 327.472 7.37067 327.472 8.032C327.472 8.69333 327.595 9.248 327.84 9.696C328.085 10.144 328.4 10.48 328.784 10.704C329.179 10.928 329.6 11.04 330.048 11.04ZM340.135 12V4.064H341.351L341.431 5.488C341.687 4.98667 342.055 4.592 342.535 4.304C343.015 4.016 343.559 3.872 344.167 3.872C345.106 3.872 345.853 4.16 346.407 4.736C346.973 5.30133 347.255 6.176 347.255 7.36V12H345.911V7.504C345.911 5.85067 345.229 5.024 343.863 5.024C343.181 5.024 342.61 5.27467 342.151 5.776C341.703 6.26667 341.479 6.97067 341.479 7.888V12H340.135ZM352.86 12.192C352.102 12.192 351.43 12.0213 350.844 11.68C350.257 11.328 349.793 10.8427 349.452 10.224C349.121 9.60533 348.956 8.87467 348.956 8.032C348.956 7.2 349.121 6.47467 349.452 5.856C349.782 5.22667 350.241 4.74133 350.828 4.4C351.425 4.048 352.113 3.872 352.891 3.872C353.66 3.872 354.321 4.048 354.876 4.4C355.441 4.74133 355.873 5.19467 356.172 5.76C356.47 6.32533 356.62 6.93333 356.62 7.584C356.62 7.70133 356.614 7.81867 356.604 7.936C356.604 8.05333 356.604 8.18667 356.604 8.336H350.284C350.316 8.944 350.454 9.45067 350.7 9.856C350.956 10.2507 351.27 10.5493 351.644 10.752C352.028 10.9547 352.433 11.056 352.86 11.056C353.414 11.056 353.878 10.928 354.252 10.672C354.625 10.416 354.897 10.0693 355.068 9.632H356.396C356.182 10.368 355.772 10.9813 355.164 11.472C354.566 11.952 353.798 12.192 352.86 12.192ZM352.86 5.008C352.22 5.008 351.649 5.20533 351.148 5.6C350.657 5.984 350.374 6.54933 350.299 7.296H355.292C355.26 6.58133 355.014 6.02133 354.556 5.616C354.097 5.21067 353.532 5.008 352.86 5.008ZM361.969 12.192C361.212 12.192 360.54 12.0213 359.953 11.68C359.366 11.328 358.902 10.8427 358.561 10.224C358.23 9.60533 358.065 8.87467 358.065 8.032C358.065 7.2 358.23 6.47467 358.561 5.856C358.892 5.22667 359.35 4.74133 359.937 4.4C360.534 4.048 361.222 3.872 362.001 3.872C362.769 3.872 363.43 4.048 363.985 4.4C364.55 4.74133 364.982 5.19467 365.281 5.76C365.58 6.32533 365.729 6.93333 365.729 7.584C365.729 7.70133 365.724 7.81867 365.713 7.936C365.713 8.05333 365.713 8.18667 365.713 8.336H359.393C359.425 8.944 359.564 9.45067 359.809 9.856C360.065 10.2507 360.38 10.5493 360.753 10.752C361.137 10.9547 361.542 11.056 361.969 11.056C362.524 11.056 362.988 10.928 363.361 10.672C363.734 10.416 364.006 10.0693 364.177 9.632H365.505C365.292 10.368 364.881 10.9813 364.273 11.472C363.676 11.952 362.908 12.192 361.969 12.192ZM361.969 5.008C361.329 5.008 360.758 5.20533 360.257 5.6C359.766 5.984 359.484 6.54933 359.409 7.296H364.401C364.369 6.58133 364.124 6.02133 363.665 5.616C363.206 5.21067 362.641 5.008 361.969 5.008ZM371.11 12.192C370.321 12.192 369.628 12.0107 369.03 11.648C368.444 11.2853 367.985 10.7893 367.654 10.16C367.334 9.53067 367.174 8.816 367.174 8.016C367.174 7.216 367.34 6.50667 367.67 5.888C368.001 5.25867 368.46 4.768 369.046 4.416C369.633 4.05333 370.326 3.872 371.126 3.872C371.777 3.872 372.353 4.00533 372.854 4.272C373.356 4.53867 373.745 4.912 374.022 5.392V0.48H375.366V12H374.15L374.022 10.688C373.766 11.072 373.398 11.4187 372.918 11.728C372.438 12.0373 371.836 12.192 371.11 12.192ZM371.254 11.024C371.788 11.024 372.257 10.9013 372.662 10.656C373.078 10.4 373.398 10.048 373.622 9.6C373.857 9.152 373.974 8.62933 373.974 8.032C373.974 7.43467 373.857 6.912 373.622 6.464C373.398 6.016 373.078 5.66933 372.662 5.424C372.257 5.168 371.788 5.04 371.254 5.04C370.732 5.04 370.262 5.168 369.846 5.424C369.441 5.66933 369.121 6.016 368.886 6.464C368.662 6.912 368.55 7.43467 368.55 8.032C368.55 8.62933 368.662 9.152 368.886 9.6C369.121 10.048 369.441 10.4 369.846 10.656C370.262 10.9013 370.732 11.024 371.254 11.024ZM381.792 12V4.064H383.008L383.104 5.216C383.36 4.78933 383.701 4.45867 384.128 4.224C384.554 3.98933 385.034 3.872 385.568 3.872C386.197 3.872 386.736 4 387.184 4.256C387.642 4.512 387.994 4.90133 388.24 5.424C388.517 4.944 388.896 4.56533 389.376 4.288C389.866 4.01067 390.394 3.872 390.96 3.872C391.909 3.872 392.666 4.16 393.232 4.736C393.797 5.30133 394.08 6.176 394.08 7.36V12H392.752V7.504C392.752 6.68267 392.586 6.064 392.256 5.648C391.925 5.232 391.45 5.024 390.832 5.024C390.192 5.024 389.658 5.27467 389.232 5.776C388.816 6.26667 388.608 6.97067 388.608 7.888V12H387.264V7.504C387.264 6.68267 387.098 6.064 386.768 5.648C386.437 5.232 385.962 5.024 385.344 5.024C384.714 5.024 384.186 5.27467 383.76 5.776C383.344 6.26667 383.136 6.97067 383.136 7.888V12H381.792ZM399.72 12.192C398.973 12.192 398.301 12.0213 397.704 11.68C397.107 11.3387 396.632 10.8587 396.28 10.24C395.939 9.61067 395.768 8.87467 395.768 8.032C395.768 7.18933 395.944 6.45867 396.296 5.84C396.648 5.21067 397.123 4.72533 397.72 4.384C398.328 4.04267 399.005 3.872 399.752 3.872C400.499 3.872 401.171 4.04267 401.768 4.384C402.365 4.72533 402.835 5.21067 403.176 5.84C403.528 6.45867 403.704 7.18933 403.704 8.032C403.704 8.87467 403.528 9.61067 403.176 10.24C402.824 10.8587 402.344 11.3387 401.736 11.68C401.139 12.0213 400.467 12.192 399.72 12.192ZM399.72 11.04C400.179 11.04 400.605 10.928 401 10.704C401.395 10.48 401.715 10.144 401.96 9.696C402.205 9.248 402.328 8.69333 402.328 8.032C402.328 7.37067 402.205 6.816 401.96 6.368C401.725 5.92 401.411 5.584 401.016 5.36C400.621 5.136 400.2 5.024 399.752 5.024C399.293 5.024 398.867 5.136 398.472 5.36C398.077 5.584 397.757 5.92 397.512 6.368C397.267 6.816 397.144 7.37067 397.144 8.032C397.144 8.69333 397.267 9.248 397.512 9.696C397.757 10.144 398.072 10.48 398.456 10.704C398.851 10.928 399.272 11.04 399.72 11.04ZM405.573 12V4.064H406.789L406.901 5.584C407.146 5.06133 407.519 4.64533 408.021 4.336C408.522 4.02667 409.141 3.872 409.877 3.872V5.28H409.509C409.039 5.28 408.607 5.36533 408.213 5.536C407.818 5.696 407.503 5.97333 407.269 6.368C407.034 6.76267 406.917 7.30667 406.917 8V12H405.573ZM414.656 12.192C413.899 12.192 413.227 12.0213 412.64 11.68C412.054 11.328 411.59 10.8427 411.248 10.224C410.918 9.60533 410.752 8.87467 410.752 8.032C410.752 7.2 410.918 6.47467 411.248 5.856C411.579 5.22667 412.038 4.74133 412.624 4.4C413.222 4.048 413.91 3.872 414.688 3.872C415.456 3.872 416.118 4.048 416.672 4.4C417.238 4.74133 417.67 5.19467 417.968 5.76C418.267 6.32533 418.416 6.93333 418.416 7.584C418.416 7.70133 418.411 7.81867 418.4 7.936C418.4 8.05333 418.4 8.18667 418.4 8.336H412.08C412.112 8.944 412.251 9.45067 412.496 9.856C412.752 10.2507 413.067 10.5493 413.44 10.752C413.824 10.9547 414.23 11.056 414.656 11.056C415.211 11.056 415.675 10.928 416.048 10.672C416.422 10.416 416.694 10.0693 416.864 9.632H418.192C417.979 10.368 417.568 10.9813 416.96 11.472C416.363 11.952 415.595 12.192 414.656 12.192ZM414.656 5.008C414.016 5.008 413.446 5.20533 412.944 5.6C412.454 5.984 412.171 6.54933 412.096 7.296H417.088C417.056 6.58133 416.811 6.02133 416.352 5.616C415.894 5.21067 415.328 5.008 414.656 5.008ZM0.104 47.52V36.064H1.32L1.448 37.376C1.704 36.992 2.06667 36.6453 2.536 36.336C3.016 36.0267 3.624 35.872 4.36 35.872C5.14933 35.872 5.83733 36.0533 6.424 36.416C7.01067 36.7787 7.464 37.2747 7.784 37.904C8.11467 38.5333 8.28 39.248 8.28 40.048C8.28 40.848 8.11467 41.5627 7.784 42.192C7.464 42.8107 7.00533 43.3013 6.408 43.664C5.82133 44.016 5.13333 44.192 4.344 44.192C3.69333 44.192 3.112 44.0587 2.6 43.792C2.09867 43.5253 1.71467 43.152 1.448 42.672V47.52H0.104ZM4.2 43.024C4.73333 43.024 5.20267 42.9013 5.608 42.656C6.01333 42.4 6.33333 42.048 6.568 41.6C6.80267 41.152 6.92 40.6293 6.92 40.032C6.92 39.4347 6.80267 38.912 6.568 38.464C6.33333 38.016 6.01333 37.6693 5.608 37.424C5.20267 37.168 4.73333 37.04 4.2 37.04C3.66667 37.04 3.19733 37.168 2.792 37.424C2.38667 37.6693 2.06667 38.016 1.832 38.464C1.59733 38.912 1.48 39.4347 1.48 40.032C1.48 40.6293 1.59733 41.152 1.832 41.6C2.06667 42.048 2.38667 42.4 2.792 42.656C3.19733 42.9013 3.66667 43.024 4.2 43.024ZM10.1509 44V36.064H11.3669L11.4789 37.584C11.7242 37.0613 12.0975 36.6453 12.5989 36.336C13.1002 36.0267 13.7189 35.872 14.4549 35.872V37.28H14.0869C13.6175 37.28 13.1855 37.3653 12.7909 37.536C12.3962 37.696 12.0815 37.9733 11.8469 38.368C11.6122 38.7627 11.4949 39.3067 11.4949 40V44H10.1509ZM19.2825 44.192C18.5358 44.192 17.8638 44.0213 17.2665 43.68C16.6692 43.3387 16.1945 42.8587 15.8425 42.24C15.5012 41.6107 15.3305 40.8747 15.3305 40.032C15.3305 39.1893 15.5065 38.4587 15.8585 37.84C16.2105 37.2107 16.6852 36.7253 17.2825 36.384C17.8905 36.0427 18.5678 35.872 19.3145 35.872C20.0612 35.872 20.7332 36.0427 21.3305 36.384C21.9278 36.7253 22.3972 37.2107 22.7385 37.84C23.0905 38.4587 23.2665 39.1893 23.2665 40.032C23.2665 40.8747 23.0905 41.6107 22.7385 42.24C22.3865 42.8587 21.9065 43.3387 21.2985 43.68C20.7012 44.0213 20.0292 44.192 19.2825 44.192ZM19.2825 43.04C19.7412 43.04 20.1678 42.928 20.5625 42.704C20.9572 42.48 21.2772 42.144 21.5225 41.696C21.7678 41.248 21.8905 40.6933 21.8905 40.032C21.8905 39.3707 21.7678 38.816 21.5225 38.368C21.2878 37.92 20.9732 37.584 20.5785 37.36C20.1838 37.136 19.7625 37.024 19.3145 37.024C18.8558 37.024 18.4292 37.136 18.0345 37.36C17.6398 37.584 17.3198 37.92 17.0745 38.368C16.8292 38.816 16.7065 39.3707 16.7065 40.032C16.7065 40.6933 16.8292 41.248 17.0745 41.696C17.3198 42.144 17.6345 42.48 18.0185 42.704C18.4132 42.928 18.8345 43.04 19.2825 43.04ZM26.0153 34.304C25.7593 34.304 25.5406 34.2187 25.3593 34.048C25.1779 33.8667 25.0872 33.6427 25.0872 33.376C25.0872 33.12 25.1779 32.9067 25.3593 32.736C25.5406 32.5653 25.7593 32.48 26.0153 32.48C26.2713 32.48 26.4846 32.5653 26.6553 32.736C26.8366 32.9067 26.9273 33.12 26.9273 33.376C26.9273 33.6427 26.8366 33.8667 26.6553 34.048C26.4846 34.2187 26.2713 34.304 26.0153 34.304ZM23.5832 47.52V46.368H24.2073C24.6019 46.368 24.8846 46.2827 25.0553 46.112C25.2366 45.952 25.3273 45.6747 25.3273 45.28V36.064H26.6713V45.312C26.6713 46.08 26.4793 46.64 26.0953 46.992C25.7113 47.344 25.1513 47.52 24.4153 47.52H23.5832ZM32.5783 44.192C31.8209 44.192 31.1489 44.0213 30.5623 43.68C29.9756 43.328 29.5116 42.8427 29.1703 42.224C28.8396 41.6053 28.6743 40.8747 28.6743 40.032C28.6743 39.2 28.8396 38.4747 29.1703 37.856C29.5009 37.2267 29.9596 36.7413 30.5463 36.4C31.1436 36.048 31.8316 35.872 32.6102 35.872C33.3783 35.872 34.0396 36.048 34.5943 36.4C35.1596 36.7413 35.5916 37.1947 35.8903 37.76C36.1889 38.3253 36.3383 38.9333 36.3383 39.584C36.3383 39.7013 36.3329 39.8187 36.3223 39.936C36.3223 40.0533 36.3223 40.1867 36.3223 40.336H30.0023C30.0343 40.944 30.1729 41.4507 30.4183 41.856C30.6743 42.2507 30.9889 42.5493 31.3623 42.752C31.7463 42.9547 32.1516 43.056 32.5783 43.056C33.1329 43.056 33.5969 42.928 33.9703 42.672C34.3436 42.416 34.6156 42.0693 34.7863 41.632H36.1143C35.9009 42.368 35.4903 42.9813 34.8823 43.472C34.2849 43.952 33.5169 44.192 32.5783 44.192ZM32.5783 37.008C31.9383 37.008 31.3676 37.2053 30.8663 37.6C30.3756 37.984 30.0929 38.5493 30.0182 39.296H35.0103C34.9783 38.5813 34.7329 38.0213 34.2743 37.616C33.8156 37.2107 33.2503 37.008 32.5783 37.008ZM41.7676 44.192C41.0103 44.192 40.3276 44.0213 39.7196 43.68C39.1223 43.328 38.6476 42.8427 38.2956 42.224C37.9543 41.5947 37.7836 40.864 37.7836 40.032C37.7836 39.2 37.9543 38.4747 38.2956 37.856C38.6476 37.2267 39.1223 36.7413 39.7196 36.4C40.3276 36.048 41.0103 35.872 41.7676 35.872C42.7063 35.872 43.4956 36.1173 44.1356 36.608C44.7863 37.0987 45.197 37.7547 45.3676 38.576H43.9916C43.885 38.0853 43.6236 37.7067 43.2076 37.44C42.7916 37.1627 42.3063 37.024 41.7516 37.024C41.3036 37.024 40.8823 37.136 40.4876 37.36C40.093 37.584 39.773 37.92 39.5276 38.368C39.2823 38.816 39.1596 39.3707 39.1596 40.032C39.1596 40.6933 39.2823 41.248 39.5276 41.696C39.773 42.144 40.093 42.4853 40.4876 42.72C40.8823 42.944 41.3036 43.056 41.7516 43.056C42.3063 43.056 42.7916 42.9227 43.2076 42.656C43.6236 42.3787 43.885 41.9893 43.9916 41.488H45.3676C45.2076 42.288 44.8023 42.9387 44.1516 43.44C43.501 43.9413 42.7063 44.192 41.7676 44.192ZM50.1619 44C49.4365 44 48.8659 43.824 48.4499 43.472C48.0339 43.12 47.8259 42.4853 47.8259 41.568V37.2H46.4499V36.064H47.8259L48.0019 34.16H49.1699V36.064H51.5059V37.2H49.1699V41.568C49.1699 42.0693 49.2712 42.4107 49.4739 42.592C49.6765 42.7627 50.0339 42.848 50.5459 42.848H51.3779V44H50.1619ZM56.2534 44.192C55.304 44.192 54.5147 43.952 53.8854 43.472C53.256 42.992 52.888 42.3413 52.7814 41.52H54.1574C54.2427 41.936 54.4614 42.2987 54.8134 42.608C55.176 42.9067 55.6614 43.056 56.2694 43.056C56.8347 43.056 57.2507 42.9387 57.5174 42.704C57.784 42.4587 57.9174 42.1707 57.9174 41.84C57.9174 41.36 57.7414 41.04 57.3894 40.88C57.048 40.72 56.5627 40.576 55.9334 40.448C55.5067 40.3627 55.08 40.24 54.6534 40.08C54.2267 39.92 53.8694 39.696 53.5814 39.408C53.2934 39.1093 53.1494 38.72 53.1494 38.24C53.1494 37.5467 53.4054 36.9813 53.9174 36.544C54.44 36.096 55.144 35.872 56.0294 35.872C56.872 35.872 57.56 36.0853 58.0934 36.512C58.6374 36.928 58.952 37.5253 59.0374 38.304H57.7094C57.656 37.8987 57.48 37.584 57.1814 37.36C56.8934 37.1253 56.504 37.008 56.0134 37.008C55.5334 37.008 55.16 37.1093 54.8934 37.312C54.6374 37.5147 54.5094 37.7813 54.5094 38.112C54.5094 38.432 54.6747 38.6827 55.0054 38.864C55.3467 39.0453 55.8054 39.2 56.3814 39.328C56.872 39.4347 57.336 39.568 57.7734 39.728C58.2214 39.8773 58.584 40.1067 58.8614 40.416C59.1494 40.7147 59.2934 41.152 59.2934 41.728C59.304 42.4427 59.032 43.0347 58.4774 43.504C57.9334 43.9627 57.192 44.192 56.2534 44.192ZM68.0878 44.192C67.4264 44.192 66.8771 44.08 66.4398 43.856C66.0024 43.632 65.6771 43.3333 65.4638 42.96C65.2504 42.5867 65.1438 42.1813 65.1438 41.744C65.1438 40.9333 65.4531 40.3093 66.0718 39.872C66.6904 39.4347 67.5331 39.216 68.5998 39.216H70.7438V39.12C70.7438 38.4267 70.5624 37.904 70.1998 37.552C69.8371 37.1893 69.3518 37.008 68.7438 37.008C68.2211 37.008 67.7678 37.1413 67.3838 37.408C67.0104 37.664 66.7758 38.0427 66.6798 38.544H65.3038C65.3571 37.968 65.5491 37.4827 65.8798 37.088C66.2211 36.6933 66.6424 36.3947 67.1438 36.192C67.6451 35.9787 68.1784 35.872 68.7438 35.872C69.8531 35.872 70.6851 36.1707 71.2398 36.768C71.8051 37.3547 72.0878 38.1387 72.0878 39.12V44H70.8878L70.8078 42.576C70.5838 43.024 70.2531 43.408 69.8158 43.728C69.3891 44.0373 68.8131 44.192 68.0878 44.192ZM68.2958 43.056C68.8078 43.056 69.2451 42.9227 69.6078 42.656C69.9811 42.3893 70.2638 42.0427 70.4558 41.616C70.6478 41.1893 70.7438 40.7413 70.7438 40.272V40.256H68.7118C67.9224 40.256 67.3624 40.3947 67.0318 40.672C66.7118 40.9387 66.5518 41.2747 66.5518 41.68C66.5518 42.096 66.7011 42.432 66.9998 42.688C67.3091 42.9333 67.7411 43.056 68.2958 43.056ZM74.104 44V36.064H75.32L75.4 37.488C75.656 36.9867 76.024 36.592 76.504 36.304C76.984 36.016 77.528 35.872 78.136 35.872C79.0747 35.872 79.8213 36.16 80.376 36.736C80.9413 37.3013 81.224 38.176 81.224 39.36V44H79.88V39.504C79.88 37.8507 79.1973 37.024 77.832 37.024C77.1493 37.024 76.5787 37.2747 76.12 37.776C75.672 38.2667 75.448 38.9707 75.448 39.888V44H74.104ZM86.8602 44.192C86.0709 44.192 85.3776 44.0107 84.7803 43.648C84.1936 43.2853 83.7349 42.7893 83.4043 42.16C83.0843 41.5307 82.9243 40.816 82.9243 40.016C82.9243 39.216 83.0896 38.5067 83.4203 37.888C83.7509 37.2587 84.2096 36.768 84.7963 36.416C85.3829 36.0533 86.0763 35.872 86.8763 35.872C87.5269 35.872 88.1029 36.0053 88.6043 36.272C89.1056 36.5387 89.4949 36.912 89.7723 37.392V32.48H91.1163V44H89.9003L89.7723 42.688C89.5163 43.072 89.1483 43.4187 88.6683 43.728C88.1883 44.0373 87.5856 44.192 86.8602 44.192ZM87.0043 43.024C87.5376 43.024 88.0069 42.9013 88.4123 42.656C88.8283 42.4 89.1483 42.048 89.3723 41.6C89.6069 41.152 89.7243 40.6293 89.7243 40.032C89.7243 39.4347 89.6069 38.912 89.3723 38.464C89.1483 38.016 88.8283 37.6693 88.4123 37.424C88.0069 37.168 87.5376 37.04 87.0043 37.04C86.4816 37.04 86.0123 37.168 85.5963 37.424C85.1909 37.6693 84.8709 38.016 84.6363 38.464C84.4123 38.912 84.3003 39.4347 84.3003 40.032C84.3003 40.6293 84.4123 41.152 84.6363 41.6C84.8709 42.048 85.1909 42.4 85.5963 42.656C86.0123 42.9013 86.4816 43.024 87.0043 43.024ZM97.5415 47.52V36.064H98.7575L98.8855 37.376C99.1415 36.992 99.5042 36.6453 99.9735 36.336C100.454 36.0267 101.062 35.872 101.798 35.872C102.587 35.872 103.275 36.0533 103.862 36.416C104.448 36.7787 104.902 37.2747 105.222 37.904C105.552 38.5333 105.718 39.248 105.718 40.048C105.718 40.848 105.552 41.5627 105.222 42.192C104.902 42.8107 104.443 43.3013 103.846 43.664C103.259 44.016 102.571 44.192 101.782 44.192C101.131 44.192 100.55 44.0587 100.038 43.792C99.5362 43.5253 99.1522 43.152 98.8855 42.672V47.52H97.5415ZM101.638 43.024C102.171 43.024 102.64 42.9013 103.046 42.656C103.451 42.4 103.771 42.048 104.006 41.6C104.24 41.152 104.358 40.6293 104.358 40.032C104.358 39.4347 104.24 38.912 104.006 38.464C103.771 38.016 103.451 37.6693 103.046 37.424C102.64 37.168 102.171 37.04 101.638 37.04C101.104 37.04 100.635 37.168 100.23 37.424C99.8242 37.6693 99.5042 38.016 99.2695 38.464C99.0348 38.912 98.9175 39.4347 98.9175 40.032C98.9175 40.6293 99.0348 41.152 99.2695 41.6C99.5042 42.048 99.8242 42.4 100.23 42.656C100.635 42.9013 101.104 43.024 101.638 43.024ZM107.588 44V36.064H108.804L108.916 37.584C109.162 37.0613 109.535 36.6453 110.036 36.336C110.538 36.0267 111.156 35.872 111.892 35.872V37.28H111.524C111.055 37.28 110.623 37.3653 110.228 37.536C109.834 37.696 109.519 37.9733 109.284 38.368C109.05 38.7627 108.932 39.3067 108.932 40V44H107.588ZM116.672 44.192C115.915 44.192 115.243 44.0213 114.656 43.68C114.069 43.328 113.605 42.8427 113.264 42.224C112.933 41.6053 112.768 40.8747 112.768 40.032C112.768 39.2 112.933 38.4747 113.264 37.856C113.595 37.2267 114.053 36.7413 114.64 36.4C115.237 36.048 115.925 35.872 116.704 35.872C117.472 35.872 118.133 36.048 118.688 36.4C119.253 36.7413 119.685 37.1947 119.984 37.76C120.283 38.3253 120.432 38.9333 120.432 39.584C120.432 39.7013 120.427 39.8187 120.416 39.936C120.416 40.0533 120.416 40.1867 120.416 40.336H114.096C114.128 40.944 114.267 41.4507 114.512 41.856C114.768 42.2507 115.083 42.5493 115.456 42.752C115.84 42.9547 116.245 43.056 116.672 43.056C117.227 43.056 117.691 42.928 118.064 42.672C118.437 42.416 118.709 42.0693 118.88 41.632H120.208C119.995 42.368 119.584 42.9813 118.976 43.472C118.379 43.952 117.611 44.192 116.672 44.192ZM116.672 37.008C116.032 37.008 115.461 37.2053 114.96 37.6C114.469 37.984 114.187 38.5493 114.112 39.296H119.104C119.072 38.5813 118.827 38.0213 118.368 37.616C117.909 37.2107 117.344 37.008 116.672 37.008ZM122.213 44V36.064H123.429L123.525 37.216C123.781 36.7893 124.123 36.4587 124.549 36.224C124.976 35.9893 125.456 35.872 125.989 35.872C126.619 35.872 127.157 36 127.605 36.256C128.064 36.512 128.416 36.9013 128.661 37.424C128.939 36.944 129.317 36.5653 129.797 36.288C130.288 36.0107 130.816 35.872 131.381 35.872C132.331 35.872 133.088 36.16 133.653 36.736C134.219 37.3013 134.501 38.176 134.501 39.36V44H133.173V39.504C133.173 38.6827 133.008 38.064 132.677 37.648C132.347 37.232 131.872 37.024 131.253 37.024C130.613 37.024 130.08 37.2747 129.653 37.776C129.237 38.2667 129.029 38.9707 129.029 39.888V44H127.685V39.504C127.685 38.6827 127.52 38.064 127.189 37.648C126.859 37.232 126.384 37.024 125.765 37.024C125.136 37.024 124.608 37.2747 124.181 37.776C123.765 38.2667 123.557 38.9707 123.557 39.888V44H122.213ZM137.342 34.304C137.075 34.304 136.851 34.2187 136.67 34.048C136.499 33.8667 136.414 33.6427 136.414 33.376C136.414 33.12 136.499 32.9067 136.67 32.736C136.851 32.5653 137.075 32.48 137.342 32.48C137.598 32.48 137.817 32.5653 137.998 32.736C138.179 32.9067 138.27 33.12 138.27 33.376C138.27 33.6427 138.179 33.8667 137.998 34.048C137.817 34.2187 137.598 34.304 137.342 34.304ZM136.67 44V36.064H138.014V44H136.67ZM147.298 36.064V44H146.082L146.002 42.576C145.746 43.0773 145.378 43.472 144.898 43.76C144.418 44.048 143.874 44.192 143.266 44.192C142.327 44.192 141.575 43.9093 141.01 43.344C140.455 42.768 140.178 41.888 140.178 40.704V36.064H141.522V40.56C141.522 42.2133 142.205 43.04 143.57 43.04C144.253 43.04 144.818 42.7947 145.266 42.304C145.725 41.8027 145.954 41.0933 145.954 40.176V36.064H147.298ZM149.51 44V36.064H150.726L150.822 37.216C151.078 36.7893 151.42 36.4587 151.846 36.224C152.273 35.9893 152.753 35.872 153.286 35.872C153.916 35.872 154.454 36 154.902 36.256C155.361 36.512 155.713 36.9013 155.958 37.424C156.236 36.944 156.614 36.5653 157.094 36.288C157.585 36.0107 158.113 35.872 158.678 35.872C159.628 35.872 160.385 36.16 160.95 36.736C161.516 37.3013 161.798 38.176 161.798 39.36V44H160.47V39.504C160.47 38.6827 160.305 38.064 159.974 37.648C159.644 37.232 159.169 37.024 158.55 37.024C157.91 37.024 157.377 37.2747 156.95 37.776C156.534 38.2667 156.326 38.9707 156.326 39.888V44H154.982V39.504C154.982 38.6827 154.817 38.064 154.486 37.648C154.156 37.232 153.681 37.024 153.062 37.024C152.433 37.024 151.905 37.2747 151.478 37.776C151.062 38.2667 150.854 38.9707 150.854 39.888V44H149.51ZM168.489 44V37.2H167.289V36.064H168.489V34.688C168.489 33.92 168.681 33.36 169.065 33.008C169.449 32.656 170.009 32.48 170.745 32.48H171.545V33.632H170.953C170.548 33.632 170.26 33.7173 170.089 33.888C169.918 34.048 169.833 34.3253 169.833 34.72V36.064H171.785V37.2H169.833V44H168.489ZM176.641 44.192C175.883 44.192 175.211 44.0213 174.625 43.68C174.038 43.328 173.574 42.8427 173.233 42.224C172.902 41.6053 172.737 40.8747 172.737 40.032C172.737 39.2 172.902 38.4747 173.233 37.856C173.563 37.2267 174.022 36.7413 174.609 36.4C175.206 36.048 175.894 35.872 176.673 35.872C177.441 35.872 178.102 36.048 178.657 36.4C179.222 36.7413 179.654 37.1947 179.953 37.76C180.251 38.3253 180.401 38.9333 180.401 39.584C180.401 39.7013 180.395 39.8187 180.385 39.936C180.385 40.0533 180.385 40.1867 180.385 40.336H174.065C174.097 40.944 174.235 41.4507 174.481 41.856C174.737 42.2507 175.051 42.5493 175.425 42.752C175.809 42.9547 176.214 43.056 176.641 43.056C177.195 43.056 177.659 42.928 178.033 42.672C178.406 42.416 178.678 42.0693 178.849 41.632H180.177C179.963 42.368 179.553 42.9813 178.945 43.472C178.347 43.952 177.579 44.192 176.641 44.192ZM176.641 37.008C176.001 37.008 175.43 37.2053 174.929 37.6C174.438 37.984 174.155 38.5493 174.081 39.296H179.073C179.041 38.5813 178.795 38.0213 178.337 37.616C177.878 37.2107 177.313 37.008 176.641 37.008ZM184.822 44.192C184.161 44.192 183.611 44.08 183.174 43.856C182.737 43.632 182.411 43.3333 182.198 42.96C181.985 42.5867 181.878 42.1813 181.878 41.744C181.878 40.9333 182.187 40.3093 182.806 39.872C183.425 39.4347 184.267 39.216 185.334 39.216H187.478V39.12C187.478 38.4267 187.297 37.904 186.934 37.552C186.571 37.1893 186.086 37.008 185.478 37.008C184.955 37.008 184.502 37.1413 184.118 37.408C183.745 37.664 183.51 38.0427 183.414 38.544H182.038C182.091 37.968 182.283 37.4827 182.614 37.088C182.955 36.6933 183.377 36.3947 183.878 36.192C184.379 35.9787 184.913 35.872 185.478 35.872C186.587 35.872 187.419 36.1707 187.974 36.768C188.539 37.3547 188.822 38.1387 188.822 39.12V44H187.622L187.542 42.576C187.318 43.024 186.987 43.408 186.55 43.728C186.123 44.0373 185.547 44.192 184.822 44.192ZM185.03 43.056C185.542 43.056 185.979 42.9227 186.342 42.656C186.715 42.3893 186.998 42.0427 187.19 41.616C187.382 41.1893 187.478 40.7413 187.478 40.272V40.256H185.446C184.657 40.256 184.097 40.3947 183.766 40.672C183.446 40.9387 183.286 41.2747 183.286 41.68C183.286 42.096 183.435 42.432 183.734 42.688C184.043 42.9333 184.475 43.056 185.03 43.056ZM193.756 44C193.03 44 192.46 43.824 192.044 43.472C191.628 43.12 191.42 42.4853 191.42 41.568V37.2H190.044V36.064H191.42L191.596 34.16H192.764V36.064H195.1V37.2H192.764V41.568C192.764 42.0693 192.865 42.4107 193.068 42.592C193.27 42.7627 193.628 42.848 194.14 42.848H194.972V44H193.756ZM203.751 36.064V44H202.535L202.455 42.576C202.199 43.0773 201.831 43.472 201.351 43.76C200.871 44.048 200.327 44.192 199.719 44.192C198.78 44.192 198.028 43.9093 197.463 43.344C196.908 42.768 196.631 41.888 196.631 40.704V36.064H197.975V40.56C197.975 42.2133 198.658 43.04 200.023 43.04C200.706 43.04 201.271 42.7947 201.719 42.304C202.178 41.8027 202.407 41.0933 202.407 40.176V36.064H203.751ZM205.963 44V36.064H207.179L207.291 37.584C207.537 37.0613 207.91 36.6453 208.411 36.336C208.913 36.0267 209.531 35.872 210.267 35.872V37.28H209.899C209.43 37.28 208.998 37.3653 208.603 37.536C208.209 37.696 207.894 37.9733 207.659 38.368C207.425 38.7627 207.307 39.3067 207.307 40V44H205.963ZM215.047 44.192C214.29 44.192 213.618 44.0213 213.031 43.68C212.444 43.328 211.98 42.8427 211.639 42.224C211.308 41.6053 211.143 40.8747 211.143 40.032C211.143 39.2 211.308 38.4747 211.639 37.856C211.97 37.2267 212.428 36.7413 213.015 36.4C213.612 36.048 214.3 35.872 215.079 35.872C215.847 35.872 216.508 36.048 217.063 36.4C217.628 36.7413 218.06 37.1947 218.359 37.76C218.658 38.3253 218.807 38.9333 218.807 39.584C218.807 39.7013 218.802 39.8187 218.791 39.936C218.791 40.0533 218.791 40.1867 218.791 40.336H212.471C212.503 40.944 212.642 41.4507 212.887 41.856C213.143 42.2507 213.458 42.5493 213.831 42.752C214.215 42.9547 214.62 43.056 215.047 43.056C215.602 43.056 216.066 42.928 216.439 42.672C216.812 42.416 217.084 42.0693 217.255 41.632H218.583C218.37 42.368 217.959 42.9813 217.351 43.472C216.754 43.952 215.986 44.192 215.047 44.192ZM215.047 37.008C214.407 37.008 213.836 37.2053 213.335 37.6C212.844 37.984 212.562 38.5493 212.487 39.296H217.479C217.447 38.5813 217.202 38.0213 216.743 37.616C216.284 37.2107 215.719 37.008 215.047 37.008ZM223.628 44.192C222.679 44.192 221.89 43.952 221.26 43.472C220.631 42.992 220.263 42.3413 220.156 41.52H221.532C221.618 41.936 221.836 42.2987 222.188 42.608C222.551 42.9067 223.036 43.056 223.644 43.056C224.21 43.056 224.626 42.9387 224.892 42.704C225.159 42.4587 225.292 42.1707 225.292 41.84C225.292 41.36 225.116 41.04 224.764 40.88C224.423 40.72 223.938 40.576 223.308 40.448C222.882 40.3627 222.455 40.24 222.028 40.08C221.602 39.92 221.244 39.696 220.956 39.408C220.668 39.1093 220.524 38.72 220.524 38.24C220.524 37.5467 220.78 36.9813 221.292 36.544C221.815 36.096 222.519 35.872 223.404 35.872C224.247 35.872 224.935 36.0853 225.468 36.512C226.012 36.928 226.327 37.5253 226.412 38.304H225.084C225.031 37.8987 224.855 37.584 224.556 37.36C224.268 37.1253 223.879 37.008 223.388 37.008C222.908 37.008 222.535 37.1093 222.268 37.312C222.012 37.5147 221.884 37.7813 221.884 38.112C221.884 38.432 222.05 38.6827 222.38 38.864C222.722 39.0453 223.18 39.2 223.756 39.328C224.247 39.4347 224.711 39.568 225.148 39.728C225.596 39.8773 225.959 40.1067 226.236 40.416C226.524 40.7147 226.668 41.152 226.668 41.728C226.679 42.4427 226.407 43.0347 225.852 43.504C225.308 43.9627 224.567 44.192 223.628 44.192ZM236.471 44.192C235.713 44.192 235.031 44.0213 234.423 43.68C233.825 43.328 233.351 42.8427 232.999 42.224C232.657 41.5947 232.487 40.864 232.487 40.032C232.487 39.2 232.657 38.4747 232.999 37.856C233.351 37.2267 233.825 36.7413 234.423 36.4C235.031 36.048 235.713 35.872 236.471 35.872C237.409 35.872 238.199 36.1173 238.839 36.608C239.489 37.0987 239.9 37.7547 240.071 38.576H238.695C238.588 38.0853 238.327 37.7067 237.911 37.44C237.495 37.1627 237.009 37.024 236.455 37.024C236.007 37.024 235.585 37.136 235.191 37.36C234.796 37.584 234.476 37.92 234.231 38.368C233.985 38.816 233.863 39.3707 233.863 40.032C233.863 40.6933 233.985 41.248 234.231 41.696C234.476 42.144 234.796 42.4853 235.191 42.72C235.585 42.944 236.007 43.056 236.455 43.056C237.009 43.056 237.495 42.9227 237.911 42.656C238.327 42.3787 238.588 41.9893 238.695 41.488H240.071C239.911 42.288 239.505 42.9387 238.855 43.44C238.204 43.9413 237.409 44.192 236.471 44.192ZM245.564 44.192C244.817 44.192 244.145 44.0213 243.548 43.68C242.95 43.3387 242.476 42.8587 242.124 42.24C241.782 41.6107 241.612 40.8747 241.612 40.032C241.612 39.1893 241.788 38.4587 242.14 37.84C242.492 37.2107 242.966 36.7253 243.564 36.384C244.172 36.0427 244.849 35.872 245.596 35.872C246.342 35.872 247.014 36.0427 247.612 36.384C248.209 36.7253 248.678 37.2107 249.02 37.84C249.372 38.4587 249.548 39.1893 249.548 40.032C249.548 40.8747 249.372 41.6107 249.02 42.24C248.668 42.8587 248.188 43.3387 247.58 43.68C246.982 44.0213 246.31 44.192 245.564 44.192ZM245.564 43.04C246.022 43.04 246.449 42.928 246.844 42.704C247.238 42.48 247.558 42.144 247.804 41.696C248.049 41.248 248.172 40.6933 248.172 40.032C248.172 39.3707 248.049 38.816 247.804 38.368C247.569 37.92 247.254 37.584 246.86 37.36C246.465 37.136 246.044 37.024 245.596 37.024C245.137 37.024 244.71 37.136 244.316 37.36C243.921 37.584 243.601 37.92 243.356 38.368C243.11 38.816 242.988 39.3707 242.988 40.032C242.988 40.6933 243.11 41.248 243.356 41.696C243.601 42.144 243.916 42.48 244.3 42.704C244.694 42.928 245.116 43.04 245.564 43.04ZM255.016 44.192C254.227 44.192 253.534 44.0107 252.937 43.648C252.35 43.2853 251.891 42.7893 251.561 42.16C251.241 41.5307 251.081 40.816 251.081 40.016C251.081 39.216 251.246 38.5067 251.577 37.888C251.907 37.2587 252.366 36.768 252.953 36.416C253.539 36.0533 254.233 35.872 255.033 35.872C255.683 35.872 256.259 36.0053 256.761 36.272C257.262 36.5387 257.651 36.912 257.929 37.392V32.48H259.273V44H258.057L257.929 42.688C257.673 43.072 257.305 43.4187 256.825 43.728C256.345 44.0373 255.742 44.192 255.016 44.192ZM255.161 43.024C255.694 43.024 256.163 42.9013 256.569 42.656C256.985 42.4 257.305 42.048 257.529 41.6C257.763 41.152 257.881 40.6293 257.881 40.032C257.881 39.4347 257.763 38.912 257.529 38.464C257.305 38.016 256.985 37.6693 256.569 37.424C256.163 37.168 255.694 37.04 255.161 37.04C254.638 37.04 254.169 37.168 253.753 37.424C253.347 37.6693 253.027 38.016 252.793 38.464C252.569 38.912 252.457 39.4347 252.457 40.032C252.457 40.6293 252.569 41.152 252.793 41.6C253.027 42.048 253.347 42.4 253.753 42.656C254.169 42.9013 254.638 43.024 255.161 43.024ZM265.031 44.192C264.274 44.192 263.602 44.0213 263.015 43.68C262.429 43.328 261.965 42.8427 261.623 42.224C261.293 41.6053 261.127 40.8747 261.127 40.032C261.127 39.2 261.293 38.4747 261.623 37.856C261.954 37.2267 262.413 36.7413 262.999 36.4C263.597 36.048 264.285 35.872 265.063 35.872C265.831 35.872 266.493 36.048 267.047 36.4C267.613 36.7413 268.045 37.1947 268.343 37.76C268.642 38.3253 268.791 38.9333 268.791 39.584C268.791 39.7013 268.786 39.8187 268.775 39.936C268.775 40.0533 268.775 40.1867 268.775 40.336H262.455C262.487 40.944 262.626 41.4507 262.871 41.856C263.127 42.2507 263.442 42.5493 263.815 42.752C264.199 42.9547 264.605 43.056 265.031 43.056C265.586 43.056 266.05 42.928 266.423 42.672C266.797 42.416 267.069 42.0693 267.239 41.632H268.567C268.354 42.368 267.943 42.9813 267.335 43.472C266.738 43.952 265.97 44.192 265.031 44.192ZM265.031 37.008C264.391 37.008 263.821 37.2053 263.319 37.6C262.829 37.984 262.546 38.5493 262.471 39.296H267.463C267.431 38.5813 267.186 38.0213 266.727 37.616C266.269 37.2107 265.703 37.008 265.031 37.008ZM277.447 44.192C276.786 44.192 276.236 44.08 275.799 43.856C275.362 43.632 275.036 43.3333 274.823 42.96C274.61 42.5867 274.503 42.1813 274.503 41.744C274.503 40.9333 274.812 40.3093 275.431 39.872C276.05 39.4347 276.892 39.216 277.959 39.216H280.103V39.12C280.103 38.4267 279.922 37.904 279.559 37.552C279.196 37.1893 278.711 37.008 278.103 37.008C277.58 37.008 277.127 37.1413 276.743 37.408C276.37 37.664 276.135 38.0427 276.039 38.544H274.663C274.716 37.968 274.908 37.4827 275.239 37.088C275.58 36.6933 276.002 36.3947 276.503 36.192C277.004 35.9787 277.538 35.872 278.103 35.872C279.212 35.872 280.044 36.1707 280.599 36.768C281.164 37.3547 281.447 38.1387 281.447 39.12V44H280.247L280.167 42.576C279.943 43.024 279.612 43.408 279.175 43.728C278.748 44.0373 278.172 44.192 277.447 44.192ZM277.655 43.056C278.167 43.056 278.604 42.9227 278.967 42.656C279.34 42.3893 279.623 42.0427 279.815 41.616C280.007 41.1893 280.103 40.7413 280.103 40.272V40.256H278.071C277.282 40.256 276.722 40.3947 276.391 40.672C276.071 40.9387 275.911 41.2747 275.911 41.68C275.911 42.096 276.06 42.432 276.359 42.688C276.668 42.9333 277.1 43.056 277.655 43.056ZM283.463 44V36.064H284.679L284.759 37.488C285.015 36.9867 285.383 36.592 285.863 36.304C286.343 36.016 286.887 35.872 287.495 35.872C288.434 35.872 289.181 36.16 289.735 36.736C290.301 37.3013 290.583 38.176 290.583 39.36V44H289.239V39.504C289.239 37.8507 288.557 37.024 287.191 37.024C286.509 37.024 285.938 37.2747 285.479 37.776C285.031 38.2667 284.807 38.9707 284.807 39.888V44H283.463ZM296.22 44.192C295.43 44.192 294.737 44.0107 294.14 43.648C293.553 43.2853 293.094 42.7893 292.764 42.16C292.444 41.5307 292.284 40.816 292.284 40.016C292.284 39.216 292.449 38.5067 292.78 37.888C293.11 37.2587 293.569 36.768 294.156 36.416C294.742 36.0533 295.436 35.872 296.236 35.872C296.886 35.872 297.462 36.0053 297.964 36.272C298.465 36.5387 298.854 36.912 299.132 37.392V32.48H300.476V44H299.26L299.132 42.688C298.876 43.072 298.508 43.4187 298.028 43.728C297.548 44.0373 296.945 44.192 296.22 44.192ZM296.364 43.024C296.897 43.024 297.366 42.9013 297.772 42.656C298.188 42.4 298.508 42.048 298.732 41.6C298.966 41.152 299.084 40.6293 299.084 40.032C299.084 39.4347 298.966 38.912 298.732 38.464C298.508 38.016 298.188 37.6693 297.772 37.424C297.366 37.168 296.897 37.04 296.364 37.04C295.841 37.04 295.372 37.168 294.956 37.424C294.55 37.6693 294.23 38.016 293.996 38.464C293.772 38.912 293.66 39.4347 293.66 40.032C293.66 40.6293 293.772 41.152 293.996 41.6C294.23 42.048 294.55 42.4 294.956 42.656C295.372 42.9013 295.841 43.024 296.364 43.024ZM313.845 36.064V44H312.629L312.549 42.576C312.293 43.0773 311.925 43.472 311.445 43.76C310.965 44.048 310.421 44.192 309.813 44.192C308.874 44.192 308.122 43.9093 307.557 43.344C307.002 42.768 306.725 41.888 306.725 40.704V36.064H308.069V40.56C308.069 42.2133 308.752 43.04 310.117 43.04C310.8 43.04 311.365 42.7947 311.813 42.304C312.272 41.8027 312.501 41.0933 312.501 40.176V36.064H313.845ZM316.057 44V36.064H317.273L317.353 37.488C317.609 36.9867 317.977 36.592 318.457 36.304C318.937 36.016 319.481 35.872 320.089 35.872C321.028 35.872 321.774 36.16 322.329 36.736C322.894 37.3013 323.177 38.176 323.177 39.36V44H321.833V39.504C321.833 37.8507 321.15 37.024 319.785 37.024C319.102 37.024 318.532 37.2747 318.073 37.776C317.625 38.2667 317.401 38.9707 317.401 39.888V44H316.057ZM325.213 44V32.48H326.557V44H325.213ZM332.376 44.192C331.63 44.192 330.958 44.0213 330.36 43.68C329.763 43.3387 329.288 42.8587 328.936 42.24C328.595 41.6107 328.424 40.8747 328.424 40.032C328.424 39.1893 328.6 38.4587 328.952 37.84C329.304 37.2107 329.779 36.7253 330.376 36.384C330.984 36.0427 331.662 35.872 332.408 35.872C333.155 35.872 333.827 36.0427 334.424 36.384C335.022 36.7253 335.491 37.2107 335.832 37.84C336.184 38.4587 336.36 39.1893 336.36 40.032C336.36 40.8747 336.184 41.6107 335.832 42.24C335.48 42.8587 335 43.3387 334.392 43.68C333.795 44.0213 333.123 44.192 332.376 44.192ZM332.376 43.04C332.835 43.04 333.262 42.928 333.656 42.704C334.051 42.48 334.371 42.144 334.616 41.696C334.862 41.248 334.984 40.6933 334.984 40.032C334.984 39.3707 334.862 38.816 334.616 38.368C334.382 37.92 334.067 37.584 333.672 37.36C333.278 37.136 332.856 37.024 332.408 37.024C331.95 37.024 331.523 37.136 331.128 37.36C330.734 37.584 330.414 37.92 330.168 38.368C329.923 38.816 329.8 39.3707 329.8 40.032C329.8 40.6933 329.923 41.248 330.168 41.696C330.414 42.144 330.728 42.48 331.112 42.704C331.507 42.928 331.928 43.04 332.376 43.04ZM341.877 44.192C341.12 44.192 340.437 44.0213 339.829 43.68C339.232 43.328 338.757 42.8427 338.405 42.224C338.064 41.5947 337.893 40.864 337.893 40.032C337.893 39.2 338.064 38.4747 338.405 37.856C338.757 37.2267 339.232 36.7413 339.829 36.4C340.437 36.048 341.12 35.872 341.877 35.872C342.816 35.872 343.605 36.1173 344.245 36.608C344.896 37.0987 345.306 37.7547 345.477 38.576H344.101C343.994 38.0853 343.733 37.7067 343.317 37.44C342.901 37.1627 342.416 37.024 341.861 37.024C341.413 37.024 340.992 37.136 340.597 37.36C340.202 37.584 339.882 37.92 339.637 38.368C339.392 38.816 339.269 39.3707 339.269 40.032C339.269 40.6933 339.392 41.248 339.637 41.696C339.882 42.144 340.202 42.4853 340.597 42.72C340.992 42.944 341.413 43.056 341.861 43.056C342.416 43.056 342.901 42.9227 343.317 42.656C343.733 42.3787 343.994 41.9893 344.101 41.488H345.477C345.317 42.288 344.912 42.9387 344.261 43.44C343.61 43.9413 342.816 44.192 341.877 44.192ZM347.354 44V32.48H348.698V39.408L351.946 36.064H353.594L350.074 39.648L354.042 44H352.33L348.698 39.888V44H347.354ZM359.651 44V36.064H360.867L360.963 37.216C361.219 36.7893 361.56 36.4587 361.987 36.224C362.414 35.9893 362.894 35.872 363.427 35.872C364.056 35.872 364.595 36 365.043 36.256C365.502 36.512 365.854 36.9013 366.099 37.424C366.376 36.944 366.755 36.5653 367.235 36.288C367.726 36.0107 368.254 35.872 368.819 35.872C369.768 35.872 370.526 36.16 371.091 36.736C371.656 37.3013 371.939 38.176 371.939 39.36V44H370.611V39.504C370.611 38.6827 370.446 38.064 370.115 37.648C369.784 37.232 369.31 37.024 368.691 37.024C368.051 37.024 367.518 37.2747 367.091 37.776C366.675 38.2667 366.467 38.9707 366.467 39.888V44H365.123V39.504C365.123 38.6827 364.958 38.064 364.627 37.648C364.296 37.232 363.822 37.024 363.203 37.024C362.574 37.024 362.046 37.2747 361.619 37.776C361.203 38.2667 360.995 38.9707 360.995 39.888V44H359.651ZM377.579 44.192C376.833 44.192 376.161 44.0213 375.563 43.68C374.966 43.3387 374.491 42.8587 374.139 42.24C373.798 41.6107 373.627 40.8747 373.627 40.032C373.627 39.1893 373.803 38.4587 374.155 37.84C374.507 37.2107 374.982 36.7253 375.579 36.384C376.187 36.0427 376.865 35.872 377.611 35.872C378.358 35.872 379.03 36.0427 379.627 36.384C380.225 36.7253 380.694 37.2107 381.035 37.84C381.387 38.4587 381.563 39.1893 381.563 40.032C381.563 40.8747 381.387 41.6107 381.035 42.24C380.683 42.8587 380.203 43.3387 379.595 43.68C378.998 44.0213 378.326 44.192 377.579 44.192ZM377.579 43.04C378.038 43.04 378.465 42.928 378.859 42.704C379.254 42.48 379.574 42.144 379.819 41.696C380.065 41.248 380.187 40.6933 380.187 40.032C380.187 39.3707 380.065 38.816 379.819 38.368C379.585 37.92 379.27 37.584 378.875 37.36C378.481 37.136 378.059 37.024 377.611 37.024C377.153 37.024 376.726 37.136 376.331 37.36C375.937 37.584 375.617 37.92 375.371 38.368C375.126 38.816 375.003 39.3707 375.003 40.032C375.003 40.6933 375.126 41.248 375.371 41.696C375.617 42.144 375.931 42.48 376.315 42.704C376.71 42.928 377.131 43.04 377.579 43.04ZM383.432 44V36.064H384.648L384.76 37.584C385.005 37.0613 385.379 36.6453 385.88 36.336C386.381 36.0267 387 35.872 387.736 35.872V37.28H387.368C386.899 37.28 386.467 37.3653 386.072 37.536C385.677 37.696 385.363 37.9733 385.128 38.368C384.893 38.7627 384.776 39.3067 384.776 40V44H383.432ZM392.516 44.192C391.758 44.192 391.086 44.0213 390.5 43.68C389.913 43.328 389.449 42.8427 389.108 42.224C388.777 41.6053 388.612 40.8747 388.612 40.032C388.612 39.2 388.777 38.4747 389.108 37.856C389.438 37.2267 389.897 36.7413 390.484 36.4C391.081 36.048 391.769 35.872 392.548 35.872C393.316 35.872 393.977 36.048 394.532 36.4C395.097 36.7413 395.529 37.1947 395.828 37.76C396.126 38.3253 396.276 38.9333 396.276 39.584C396.276 39.7013 396.27 39.8187 396.26 39.936C396.26 40.0533 396.26 40.1867 396.26 40.336H389.94C389.972 40.944 390.11 41.4507 390.356 41.856C390.612 42.2507 390.926 42.5493 391.3 42.752C391.684 42.9547 392.089 43.056 392.516 43.056C393.07 43.056 393.534 42.928 393.908 42.672C394.281 42.416 394.553 42.0693 394.724 41.632H396.052C395.838 42.368 395.428 42.9813 394.82 43.472C394.222 43.952 393.454 44.192 392.516 44.192ZM392.516 37.008C391.876 37.008 391.305 37.2053 390.804 37.6C390.313 37.984 390.03 38.5493 389.956 39.296H394.948C394.916 38.5813 394.67 38.0213 394.212 37.616C393.753 37.2107 393.188 37.008 392.516 37.008ZM398.521 44.08C398.254 44.08 398.03 43.9947 397.849 43.824C397.678 43.6427 397.593 43.424 397.593 43.168C397.593 42.912 397.678 42.6987 397.849 42.528C398.03 42.3467 398.254 42.256 398.521 42.256C398.777 42.256 398.99 42.3467 399.161 42.528C399.342 42.6987 399.433 42.912 399.433 43.168C399.433 43.424 399.342 43.6427 399.161 43.824C398.99 43.9947 398.777 44.08 398.521 44.08Z" fill="#111111" fill-opacity="0.50133"/>
</svg>
