<svg width="170" height="48" viewBox="0 0 170 48" fill="none" xmlns="http://www.w3.org/2000/svg">
<rect width="170" height="48" rx="3" fill="#FF564F"/>
<path d="M41.2422 27.0938H45.2734V29H38.9453V17.625H41.2422V27.0938ZM53.4766 24.0781H49.8984V27.0938H54.1328V29H47.6016V17.625H54.1172V19.5391H49.8984V22.2266H53.4766V24.0781ZM61.8906 26.6719H58.7578L58.1484 29H55.7188L59.2734 17.625H61.375L64.9531 29H62.5L61.8906 26.6719ZM59.2578 24.7578H61.3828L60.3203 20.7031L59.2578 24.7578ZM70.4688 24.8438H69.3281V29H67.0312V17.625H70.6953C71.8464 17.625 72.7344 17.9245 73.3594 18.5234C73.9896 19.1172 74.3047 19.9635 74.3047 21.0625C74.3047 22.5729 73.7552 23.6302 72.6562 24.2344L74.6484 28.8906V29H72.1797L70.4688 24.8438ZM69.3281 22.9297H70.6328C71.0911 22.9297 71.4349 22.7786 71.6641 22.4766C71.8932 22.1693 72.0078 21.7604 72.0078 21.25C72.0078 20.1094 71.5625 19.5391 70.6719 19.5391H69.3281V22.9297ZM84.8359 29H82.5391L79.1797 21.5391V29H76.8828V17.625H79.1797L82.5469 25.0938V17.625H84.8359V29ZM95.3672 17.625L97.5156 25.8516L99.6562 17.625H102.656V29H100.352V25.9219L100.562 21.1797L98.2891 29H96.7266L94.4531 21.1797L94.6641 25.9219V29H92.3672V17.625H95.3672ZM113.516 24.3359C113.516 25.862 113.154 27.0469 112.43 27.8906C111.711 28.7344 110.711 29.1562 109.43 29.1562C108.154 29.1562 107.151 28.7396 106.422 27.9062C105.693 27.0677 105.323 25.8958 105.312 24.3906V22.4453C105.312 20.8828 105.674 19.6641 106.398 18.7891C107.122 17.9089 108.128 17.4688 109.414 17.4688C110.68 17.4688 111.677 17.901 112.406 18.7656C113.135 19.625 113.505 20.8333 113.516 22.3906V24.3359ZM111.211 22.4297C111.211 21.4036 111.065 20.6406 110.773 20.1406C110.482 19.6406 110.029 19.3906 109.414 19.3906C108.805 19.3906 108.354 19.6328 108.062 20.1172C107.771 20.5964 107.62 21.3281 107.609 22.3125V24.3359C107.609 25.3307 107.758 26.0651 108.055 26.5391C108.352 27.0078 108.81 27.2422 109.43 27.2422C110.029 27.2422 110.474 27.013 110.766 26.5547C111.057 26.0911 111.206 25.375 111.211 24.4062V22.4297ZM119.609 24.8438H118.469V29H116.172V17.625H119.836C120.987 17.625 121.875 17.9245 122.5 18.5234C123.13 19.1172 123.445 19.9635 123.445 21.0625C123.445 22.5729 122.896 23.6302 121.797 24.2344L123.789 28.8906V29H121.32L119.609 24.8438ZM118.469 22.9297H119.773C120.232 22.9297 120.576 22.7786 120.805 22.4766C121.034 22.1693 121.148 21.7604 121.148 21.25C121.148 20.1094 120.703 19.5391 119.812 19.5391H118.469V22.9297ZM131.898 24.0781H128.32V27.0938H132.555V29H126.023V17.625H132.539V19.5391H128.32V22.2266H131.898V24.0781Z" fill="white"/>
</svg>
