<svg width="119" height="16" viewBox="0 0 119 16" fill="none" xmlns="http://www.w3.org/2000/svg">
<path d="M0.184 12V0.799999H7.112V1.904H1.528V5.808H6.632V6.896H1.528V10.896H7.112V12H0.184ZM8.33525 12L11.0873 8.032L8.33525 4.064H9.79125L12.0153 7.344L14.2553 4.064H15.6953L12.9433 8.032L15.6953 12H14.2553L12.0153 8.72L9.79125 12H8.33525ZM17.104 15.52V4.064H18.32L18.448 5.376C18.704 4.992 19.0667 4.64533 19.536 4.336C20.016 4.02667 20.624 3.872 21.36 3.872C22.1493 3.872 22.8373 4.05333 23.424 4.416C24.0107 4.77867 24.464 5.27467 24.784 5.904C25.1147 6.53333 25.28 7.248 25.28 8.048C25.28 8.848 25.1147 9.56267 24.784 10.192C24.464 10.8107 24.0053 11.3013 23.408 11.664C22.8213 12.016 22.1333 12.192 21.344 12.192C20.6933 12.192 20.112 12.0587 19.6 11.792C19.0987 11.5253 18.7147 11.152 18.448 10.672V15.52H17.104ZM21.2 11.024C21.7333 11.024 22.2027 10.9013 22.608 10.656C23.0133 10.4 23.3333 10.048 23.568 9.6C23.8027 9.152 23.92 8.62933 23.92 8.032C23.92 7.43467 23.8027 6.912 23.568 6.464C23.3333 6.016 23.0133 5.66933 22.608 5.424C22.2027 5.168 21.7333 5.04 21.2 5.04C20.6667 5.04 20.1973 5.168 19.792 5.424C19.3867 5.66933 19.0667 6.016 18.832 6.464C18.5973 6.912 18.48 7.43467 18.48 8.032C18.48 8.62933 18.5973 9.152 18.832 9.6C19.0667 10.048 19.3867 10.4 19.792 10.656C20.1973 10.9013 20.6667 11.024 21.2 11.024ZM27.1509 12V0.48H28.4949V12H27.1509ZM34.3138 12.192C33.5671 12.192 32.8951 12.0213 32.2978 11.68C31.7004 11.3387 31.2258 10.8587 30.8738 10.24C30.5324 9.61067 30.3618 8.87467 30.3618 8.032C30.3618 7.18933 30.5378 6.45867 30.8898 5.84C31.2418 5.21067 31.7164 4.72533 32.3138 4.384C32.9218 4.04267 33.5991 3.872 34.3458 3.872C35.0924 3.872 35.7644 4.04267 36.3618 4.384C36.9591 4.72533 37.4284 5.21067 37.7698 5.84C38.1218 6.45867 38.2978 7.18933 38.2978 8.032C38.2978 8.87467 38.1218 9.61067 37.7698 10.24C37.4178 10.8587 36.9378 11.3387 36.3298 11.68C35.7324 12.0213 35.0604 12.192 34.3138 12.192ZM34.3138 11.04C34.7724 11.04 35.1991 10.928 35.5938 10.704C35.9884 10.48 36.3084 10.144 36.5538 9.696C36.7991 9.248 36.9218 8.69333 36.9218 8.032C36.9218 7.37067 36.7991 6.816 36.5538 6.368C36.3191 5.92 36.0044 5.584 35.6098 5.36C35.2151 5.136 34.7938 5.024 34.3458 5.024C33.8871 5.024 33.4604 5.136 33.0658 5.36C32.6711 5.584 32.3511 5.92 32.1058 6.368C31.8604 6.816 31.7378 7.37067 31.7378 8.032C31.7378 8.69333 31.8604 9.248 32.1058 9.696C32.3511 10.144 32.6658 10.48 33.0498 10.704C33.4444 10.928 33.8658 11.04 34.3138 11.04ZM40.1665 12V4.064H41.3825L41.4945 5.584C41.7398 5.06133 42.1132 4.64533 42.6145 4.336C43.1158 4.02667 43.7345 3.872 44.4705 3.872V5.28H44.1025C43.6332 5.28 43.2012 5.36533 42.8065 5.536C42.4118 5.696 42.0972 5.97333 41.8625 6.368C41.6278 6.76267 41.5105 7.30667 41.5105 8V12H40.1665ZM49.2501 12.192C48.4928 12.192 47.8208 12.0213 47.2341 11.68C46.6475 11.328 46.1835 10.8427 45.8421 10.224C45.5115 9.60533 45.3461 8.87467 45.3461 8.032C45.3461 7.2 45.5115 6.47467 45.8421 5.856C46.1728 5.22667 46.6315 4.74133 47.2181 4.4C47.8155 4.048 48.5035 3.872 49.2821 3.872C50.0501 3.872 50.7115 4.048 51.2661 4.4C51.8315 4.74133 52.2635 5.19467 52.5621 5.76C52.8608 6.32533 53.0101 6.93333 53.0101 7.584C53.0101 7.70133 53.0048 7.81867 52.9941 7.936C52.9941 8.05333 52.9941 8.18667 52.9941 8.336H46.6741C46.7061 8.944 46.8448 9.45067 47.0901 9.856C47.3461 10.2507 47.6608 10.5493 48.0341 10.752C48.4181 10.9547 48.8235 11.056 49.2501 11.056C49.8048 11.056 50.2688 10.928 50.6421 10.672C51.0155 10.416 51.2875 10.0693 51.4581 9.632H52.7861C52.5728 10.368 52.1621 10.9813 51.5541 11.472C50.9568 11.952 50.1888 12.192 49.2501 12.192ZM49.2501 5.008C48.6101 5.008 48.0395 5.20533 47.5381 5.6C47.0475 5.984 46.7648 6.54933 46.6901 7.296H51.6821C51.6501 6.58133 51.4048 6.02133 50.9461 5.616C50.4875 5.21067 49.9221 5.008 49.2501 5.008ZM62.0659 12.192C61.1165 12.192 60.3272 11.952 59.6979 11.472C59.0685 10.992 58.7005 10.3413 58.5939 9.52H59.9699C60.0552 9.936 60.2739 10.2987 60.6259 10.608C60.9885 10.9067 61.4739 11.056 62.0819 11.056C62.6472 11.056 63.0632 10.9387 63.3299 10.704C63.5965 10.4587 63.7299 10.1707 63.7299 9.84C63.7299 9.36 63.5539 9.04 63.2019 8.88C62.8605 8.72 62.3752 8.576 61.7459 8.448C61.3192 8.36267 60.8925 8.24 60.4659 8.08C60.0392 7.92 59.6819 7.696 59.3939 7.408C59.1059 7.10933 58.9619 6.72 58.9619 6.24C58.9619 5.54667 59.2179 4.98133 59.7299 4.544C60.2525 4.096 60.9565 3.872 61.8419 3.872C62.6845 3.872 63.3725 4.08533 63.9059 4.512C64.4499 4.928 64.7645 5.52533 64.8499 6.304H63.5219C63.4685 5.89867 63.2925 5.584 62.9939 5.36C62.7059 5.12533 62.3165 5.008 61.8259 5.008C61.3459 5.008 60.9725 5.10933 60.7059 5.312C60.4499 5.51467 60.3219 5.78133 60.3219 6.112C60.3219 6.432 60.4872 6.68267 60.8179 6.864C61.1592 7.04533 61.6179 7.2 62.1939 7.328C62.6845 7.43467 63.1485 7.568 63.5859 7.728C64.0339 7.87733 64.3965 8.10667 64.6739 8.416C64.9619 8.71467 65.1059 9.152 65.1059 9.728C65.1165 10.4427 64.8445 11.0347 64.2899 11.504C63.7459 11.9627 63.0045 12.192 62.0659 12.192ZM70.5939 12.192C69.8365 12.192 69.1645 12.0213 68.5779 11.68C67.9912 11.328 67.5272 10.8427 67.1859 10.224C66.8552 9.60533 66.6899 8.87467 66.6899 8.032C66.6899 7.2 66.8552 6.47467 67.1859 5.856C67.5165 5.22667 67.9752 4.74133 68.5619 4.4C69.1592 4.048 69.8472 3.872 70.6259 3.872C71.3939 3.872 72.0552 4.048 72.6099 4.4C73.1752 4.74133 73.6072 5.19467 73.9059 5.76C74.2045 6.32533 74.3539 6.93333 74.3539 7.584C74.3539 7.70133 74.3485 7.81867 74.3379 7.936C74.3379 8.05333 74.3379 8.18667 74.3379 8.336H68.0179C68.0499 8.944 68.1885 9.45067 68.4339 9.856C68.6899 10.2507 69.0045 10.5493 69.3779 10.752C69.7619 10.9547 70.1672 11.056 70.5939 11.056C71.1485 11.056 71.6125 10.928 71.9859 10.672C72.3592 10.416 72.6312 10.0693 72.8019 9.632H74.1299C73.9165 10.368 73.5059 10.9813 72.8979 11.472C72.3005 11.952 71.5325 12.192 70.5939 12.192ZM70.5939 5.008C69.9539 5.008 69.3832 5.20533 68.8819 5.6C68.3912 5.984 68.1085 6.54933 68.0339 7.296H73.0259C72.9939 6.58133 72.7485 6.02133 72.2899 5.616C71.8312 5.21067 71.2659 5.008 70.5939 5.008ZM76.1353 12V4.064H77.3513L77.4633 5.584C77.7086 5.06133 78.0819 4.64533 78.5833 4.336C79.0846 4.02667 79.7033 3.872 80.4393 3.872V5.28H80.0713C79.6019 5.28 79.1699 5.36533 78.7753 5.536C78.3806 5.696 78.0659 5.97333 77.8313 6.368C77.5966 6.76267 77.4793 7.30667 77.4793 8V12H76.1353ZM84.2358 12L81.2278 4.064H82.6358L85.0198 10.704L87.4198 4.064H88.7958L85.7878 12H84.2358ZM91.1075 2.304C90.8408 2.304 90.6168 2.21867 90.4355 2.048C90.2648 1.86667 90.1795 1.64267 90.1795 1.376C90.1795 1.12 90.2648 0.906666 90.4355 0.735999C90.6168 0.565333 90.8408 0.48 91.1075 0.48C91.3635 0.48 91.5822 0.565333 91.7635 0.735999C91.9448 0.906666 92.0355 1.12 92.0355 1.376C92.0355 1.64267 91.9448 1.86667 91.7635 2.048C91.5822 2.21867 91.3635 2.304 91.1075 2.304ZM90.4355 12V4.064H91.7795V12H90.4355ZM97.7676 12.192C97.0103 12.192 96.3276 12.0213 95.7196 11.68C95.1223 11.328 94.6476 10.8427 94.2956 10.224C93.9543 9.59467 93.7836 8.864 93.7836 8.032C93.7836 7.2 93.9543 6.47467 94.2956 5.856C94.6476 5.22667 95.1223 4.74133 95.7196 4.4C96.3276 4.048 97.0103 3.872 97.7676 3.872C98.7063 3.872 99.4956 4.11733 100.136 4.608C100.786 5.09867 101.197 5.75467 101.368 6.576H99.9916C99.885 6.08533 99.6236 5.70667 99.2076 5.44C98.7916 5.16267 98.3063 5.024 97.7516 5.024C97.3036 5.024 96.8823 5.136 96.4876 5.36C96.093 5.584 95.773 5.92 95.5276 6.368C95.2823 6.816 95.1596 7.37067 95.1596 8.032C95.1596 8.69333 95.2823 9.248 95.5276 9.696C95.773 10.144 96.093 10.4853 96.4876 10.72C96.8823 10.944 97.3036 11.056 97.7516 11.056C98.3063 11.056 98.7916 10.9227 99.2076 10.656C99.6236 10.3787 99.885 9.98933 99.9916 9.488H101.368C101.208 10.288 100.802 10.9387 100.152 11.44C99.501 11.9413 98.7063 12.192 97.7676 12.192ZM106.813 12.192C106.055 12.192 105.383 12.0213 104.797 11.68C104.21 11.328 103.746 10.8427 103.405 10.224C103.074 9.60533 102.909 8.87467 102.909 8.032C102.909 7.2 103.074 6.47467 103.405 5.856C103.735 5.22667 104.194 4.74133 104.781 4.4C105.378 4.048 106.066 3.872 106.845 3.872C107.613 3.872 108.274 4.048 108.829 4.4C109.394 4.74133 109.826 5.19467 110.125 5.76C110.423 6.32533 110.573 6.93333 110.573 7.584C110.573 7.70133 110.567 7.81867 110.557 7.936C110.557 8.05333 110.557 8.18667 110.557 8.336H104.237C104.269 8.944 104.407 9.45067 104.653 9.856C104.909 10.2507 105.223 10.5493 105.597 10.752C105.981 10.9547 106.386 11.056 106.813 11.056C107.367 11.056 107.831 10.928 108.205 10.672C108.578 10.416 108.85 10.0693 109.021 9.632H110.349C110.135 10.368 109.725 10.9813 109.117 11.472C108.519 11.952 107.751 12.192 106.813 12.192ZM106.813 5.008C106.173 5.008 105.602 5.20533 105.101 5.6C104.61 5.984 104.327 6.54933 104.253 7.296H109.245C109.213 6.58133 108.967 6.02133 108.509 5.616C108.05 5.21067 107.485 5.008 106.813 5.008ZM115.394 12.192C114.445 12.192 113.655 11.952 113.026 11.472C112.397 10.992 112.029 10.3413 111.922 9.52H113.298C113.383 9.936 113.602 10.2987 113.954 10.608C114.317 10.9067 114.802 11.056 115.41 11.056C115.975 11.056 116.391 10.9387 116.658 10.704C116.925 10.4587 117.058 10.1707 117.058 9.84C117.058 9.36 116.882 9.04 116.53 8.88C116.189 8.72 115.703 8.576 115.074 8.448C114.647 8.36267 114.221 8.24 113.794 8.08C113.367 7.92 113.01 7.696 112.722 7.408C112.434 7.10933 112.29 6.72 112.29 6.24C112.29 5.54667 112.546 4.98133 113.058 4.544C113.581 4.096 114.285 3.872 115.17 3.872C116.013 3.872 116.701 4.08533 117.234 4.512C117.778 4.928 118.093 5.52533 118.178 6.304H116.85C116.797 5.89867 116.621 5.584 116.322 5.36C116.034 5.12533 115.645 5.008 115.154 5.008C114.674 5.008 114.301 5.10933 114.034 5.312C113.778 5.51467 113.65 5.78133 113.65 6.112C113.65 6.432 113.815 6.68267 114.146 6.864C114.487 7.04533 114.946 7.2 115.522 7.328C116.013 7.43467 116.477 7.568 116.914 7.728C117.362 7.87733 117.725 8.10667 118.002 8.416C118.29 8.71467 118.434 9.152 118.434 9.728C118.445 10.4427 118.173 11.0347 117.618 11.504C117.074 11.9627 116.333 12.192 115.394 12.192Z" fill="#111111"/>
</svg>
