<svg width="446" height="112" viewBox="0 0 446 112" fill="none" xmlns="http://www.w3.org/2000/svg">
<path d="M39.256 46.056H2.24V42.08L7.504 37.936V7.976L1.12 6.464L3.36 1.984H24.864V5.96L19.544 10.104V40.68H31.08L39.984 27.968L43.904 29.648V47.064L39.256 46.056ZM83.7038 46H47.2478V42.024L52.5118 37.88V8.2L46.1278 6.464L48.3678 1.984H83.1438L87.7918 0.975999V16.096L83.8718 17.776L76.8158 7.304H64.5518V20.856H69.9838L74.0718 15.088H78.0478V30.992L73.5678 33.232L69.8158 26.176H64.5518V40.68H76.3118L84.4318 29.088L88.3518 30.768V47.008L83.7038 46ZM137.196 17.216L133.276 18.896L125.156 7.304H120.956V40.008L127.396 41.52L125.156 46H103.652V42.024L108.916 37.88V7.304H104.884L96.7641 18.896L92.8441 17.216V0.975999L97.4921 1.984H132.548L137.196 0.975999V17.216ZM163.604 37.208C163.604 36.1253 163.174 35.08 162.316 34.072C161.457 33.064 160.393 32.1307 159.124 31.272C157.854 30.4133 156.1 29.3307 153.86 28.024C151.097 26.4187 148.876 25.0373 147.196 23.88C145.516 22.6853 144.078 21.304 142.884 19.736C141.689 18.168 141.092 16.432 141.092 14.528C141.092 12.6613 141.988 10.664 143.78 8.536C145.609 6.37066 147.83 4.56 150.444 3.104C153.057 1.61066 155.465 0.863997 157.668 0.863997C160.318 0.863997 163.398 1.144 166.908 1.704C170.454 2.264 173.049 2.86133 174.692 3.496V16.6H167.524C166.142 13.6133 164.574 11.28 162.82 9.6C161.102 7.88266 159.31 7.024 157.444 7.024C156.324 7.024 155.446 7.37866 154.812 8.088C154.177 8.79733 153.86 9.712 153.86 10.832C153.86 12.0267 154.289 13.1653 155.148 14.248C156.044 15.2933 157.145 16.264 158.452 17.16C159.796 18.0187 161.606 19.1013 163.884 20.408C166.572 21.9387 168.737 23.2827 170.38 24.44C172.06 25.56 173.478 26.8853 174.636 28.416C175.793 29.9467 176.372 31.6453 176.372 33.512C176.372 35.3787 175.401 37.3947 173.46 39.56C171.556 41.688 169.222 43.4987 166.46 44.992C163.697 46.448 161.177 47.176 158.9 47.176C156.137 47.176 152.852 46.896 149.044 46.336C145.236 45.776 142.492 45.1787 140.812 44.544V31.44H147.98C149.473 34.464 151.209 36.816 153.188 38.496C155.166 40.176 157.164 41.016 159.18 41.016C160.524 41.016 161.588 40.6427 162.372 39.896C163.193 39.1493 163.604 38.2533 163.604 37.208ZM239.735 17.216L235.815 18.896L227.695 7.304H223.495V40.008L229.935 41.52L227.695 46H206.191V42.024L211.455 37.88V7.304H207.423L199.303 18.896L195.383 17.216V0.975999L200.031 1.984H235.087L239.735 0.975999V17.216ZM286.339 46H263.155V42.024L269.819 38.552L266.963 31.496H250.611L248.315 37.208L256.155 41.52L253.915 46H235.211V42.024L241.763 37.152L255.203 3.776L267.187 0.919996L282.755 38.888L288.579 41.52L286.339 46ZM258.675 11.168L252.683 26.176H264.779L258.675 11.168ZM314.023 41.464L311.783 45.944H290.279V41.968L295.543 37.376V8.144L289.159 6.464L291.399 1.984H312.903V5.96L307.583 10.608V39.784L314.023 41.464ZM337.207 45.944H324.271L309.151 23.88L324.719 10.104L318.167 6.408L320.407 1.928H338.271V5.904L321.079 21.08L333.511 38.776L339.447 41.464L337.207 45.944ZM378.798 46H342.342V42.024L347.606 37.88V8.2L341.222 6.464L343.462 1.984H378.238L382.886 0.975999V16.096L378.966 17.776L371.91 7.304H359.646V20.856H365.078L369.166 15.088H373.142V30.992L368.662 33.232L364.91 26.176H359.646V40.68H371.406L379.526 29.088L383.446 30.768V47.008L378.798 46ZM51.128 110H27.944V106.024L34.608 102.552L31.752 95.496H15.4L13.104 101.208L20.944 105.52L18.704 110H0V106.024L6.552 101.152L19.992 67.776L31.976 64.92L47.544 102.888L53.368 105.52L51.128 110ZM23.464 75.168L17.472 90.176H29.568L23.464 75.168ZM80.2681 65.424C84.6735 65.424 88.5561 66.3573 91.9161 68.224C95.3135 70.0533 97.9455 72.6107 99.8121 75.896C101.679 79.1813 102.612 82.896 102.612 87.04C102.612 91.296 101.212 95.2347 98.4121 98.856C95.6495 102.44 92.1961 105.296 88.0521 107.424C83.9455 109.515 80.0255 110.56 76.2921 110.56C74.6495 110.56 72.9881 110.467 71.3081 110.28C68.6201 110.093 66.5108 110 64.9801 110H55.0681V106.024L60.3321 101.88V72.368L53.9481 70.464L56.1881 65.984H64.9241C68.3215 65.984 71.6628 65.872 74.9481 65.648C77.3375 65.4987 79.1108 65.424 80.2681 65.424ZM77.8601 104.736C79.9881 104.736 81.9295 104.083 83.6841 102.776C85.4761 101.469 86.8761 99.6773 87.8841 97.4C88.9295 95.0853 89.4521 92.5093 89.4521 89.672C89.4521 86.2747 88.9481 83.1947 87.9401 80.432C86.9695 77.632 85.4575 75.4107 83.4041 73.768C81.3881 72.088 78.8868 71.248 75.9001 71.248C74.6681 71.248 73.5108 71.5653 72.4281 72.2V103.84C74.0335 104.437 75.8441 104.736 77.8601 104.736ZM151.694 74.832L138.254 108.208L126.27 111.064L110.702 73.096L104.877 70.464L107.118 65.984H130.302V69.96L123.638 73.432L134.726 100.816L145.142 74.776L137.302 70.464L139.542 65.984H158.246V69.96L151.694 74.832ZM200.972 110H177.788V106.024L184.452 102.552L181.596 95.496H165.244L162.948 101.208L170.788 105.52L168.548 110H149.844V106.024L156.396 101.152L169.836 67.776L181.82 64.92L197.388 102.888L203.212 105.52L200.972 110ZM173.308 75.168L167.316 90.176H179.412L173.308 75.168ZM247.976 74.552V109.944H242.096L216.056 82.224V102.496L225.296 105.52L223.056 110H204.912V106.024L210.176 101.432V74.104L203.792 70.464L206.032 65.984H216.728L242.096 92.92V73.432L232.912 70.464L235.152 65.984H253.296V69.904L247.976 74.552ZM299.891 81.216L295.971 82.896L287.851 71.304H283.651V104.008L290.091 105.52L287.851 110H266.347V106.024L271.611 101.88V71.304H267.579L259.459 82.896L255.539 81.216V64.976L260.187 65.984H295.243L299.891 64.976V81.216ZM346.495 110H323.311V106.024L329.975 102.552L327.119 95.496H310.767L308.471 101.208L316.311 105.52L314.071 110H295.367V106.024L301.919 101.152L315.359 67.776L327.343 64.92L342.911 102.888L348.735 105.52L346.495 110ZM318.831 75.168L312.839 90.176H324.935L318.831 75.168ZM395.235 99.584L396.747 103.504L386.443 109.832C384.465 110.355 382.561 110.691 380.731 110.84C378.939 110.989 376.998 111.064 374.907 111.064C370.203 111.064 366.041 110.112 362.419 108.208C358.798 106.304 355.979 103.691 353.963 100.368C351.985 97.008 350.995 93.2 350.995 88.944C350.995 84.576 352.47 80.544 355.419 76.848C358.406 73.1147 362.083 70.184 366.451 68.056C370.857 65.8907 375.038 64.808 378.995 64.808C381.459 64.808 384.334 65.088 387.619 65.648C390.942 66.208 393.369 66.8053 394.899 67.44V82.224H387.731C386.201 78.7893 384.409 76.288 382.355 74.72C380.339 73.1147 378.137 72.312 375.747 72.312C373.619 72.312 371.659 72.928 369.867 74.16C368.113 75.3547 366.713 77.016 365.667 79.144C364.659 81.272 364.155 83.6427 364.155 86.256C364.155 89.4293 364.659 92.3227 365.667 94.936C366.675 97.512 368.225 99.584 370.315 101.152C372.406 102.72 374.982 103.504 378.043 103.504H379.779C381.235 103.504 382.374 103.467 383.195 103.392V93.816L374.011 91.744L376.251 87.264H400.555V91.24L395.235 95.888V99.584ZM440.649 110H404.193V106.024L409.457 101.88V72.2L403.073 70.464L405.313 65.984H440.089L444.737 64.976V80.096L440.817 81.776L433.761 71.304H421.497V84.856H426.929L431.017 79.088H434.993V94.992L430.513 97.232L426.761 90.176H421.497V104.68H433.257L441.377 93.088L445.297 94.768V111.008L440.649 110Z" fill="#111111"/>
</svg>
