<svg width="369" height="112" viewBox="0 0 369 112" fill="none" xmlns="http://www.w3.org/2000/svg">
<path d="M28.4 0.863997C32.88 0.863997 36.8373 1.816 40.272 3.72C43.7067 5.624 46.3573 8.256 48.224 11.616C50.0907 14.976 51.024 18.784 51.024 23.04C51.024 27.408 49.6053 31.44 46.768 35.136C43.968 38.832 40.4773 41.7627 36.296 43.928C32.1147 46.056 28.1573 47.12 24.424 47.12C19.944 47.12 15.9867 46.1867 12.552 44.32C9.15467 42.416 6.504 39.784 4.6 36.424C2.73333 33.064 1.8 29.256 1.8 25C1.8 20.632 3.2 16.6 6 12.904C8.83733 9.17066 12.3467 6.24 16.528 4.112C20.7093 1.94666 24.6667 0.863997 28.4 0.863997ZM25.152 8.368C23.2853 8.368 21.568 8.984 20 10.216C18.4693 11.4107 17.2373 13.072 16.304 15.2C15.408 17.328 14.96 19.6987 14.96 22.312C14.96 25.4853 15.4267 28.3787 16.36 30.992C17.2933 33.6053 18.712 35.696 20.616 37.264C22.5573 38.832 24.9093 39.616 27.672 39.616C29.5387 39.616 31.2373 39.0187 32.768 37.824C34.336 36.592 35.568 34.912 36.464 32.784C37.3973 30.656 37.864 28.2853 37.864 25.672C37.864 22.4613 37.3973 19.5493 36.464 16.936C35.5307 14.3227 34.112 12.2507 32.208 10.72C30.304 9.152 27.952 8.368 25.152 8.368ZM98.2049 10.104V28.64C98.2049 32.56 97.1969 35.92 95.1809 38.72C93.2022 41.52 90.7382 43.6293 87.7889 45.048C84.8395 46.4293 81.9649 47.12 79.1649 47.12C75.3942 47.12 72.0155 46.392 69.0289 44.936C66.0795 43.4427 63.7649 41.408 62.0849 38.832C60.4422 36.2187 59.6209 33.288 59.6209 30.04V7.976L53.2369 6.464L55.4769 1.984H76.9809V5.96L71.6609 10.104V28.472C71.6609 31.9813 72.5942 34.7253 74.4609 36.704C76.3275 38.6453 79.1649 39.616 82.9729 39.616C84.4289 39.616 85.8662 39.2053 87.2849 38.384C88.7409 37.5253 89.9355 36.2933 90.8689 34.688C91.8395 33.0827 92.3249 31.1973 92.3249 29.032V8.816L85.3809 6.464L87.6209 1.984H103.525V5.96L98.2049 10.104ZM151.149 46H137.933L128.077 26.96L125.725 25.616L127.405 22.256H129.701C131.381 22.256 132.707 21.6587 133.677 20.464C134.648 19.232 135.133 17.5147 135.133 15.312C135.133 12.8853 134.499 10.944 133.229 9.488C131.997 7.99467 130.168 7.248 127.741 7.248C126.285 7.248 124.923 7.67733 123.653 8.536V39.784L130.093 41.464L127.853 45.944H106.349V41.968L111.613 37.376V8.144L105.229 6.464L107.469 1.984H118.445C121.581 1.984 124.68 1.872 127.741 1.648C129.981 1.49866 131.624 1.424 132.669 1.424C135.731 1.424 138.437 1.94666 140.789 2.992C143.179 4 145.027 5.4 146.333 7.192C147.64 8.984 148.293 11 148.293 13.24C148.293 15.7787 147.173 18.1307 144.933 20.296C142.731 22.4613 139.968 24.16 136.645 25.392L141.629 26.736L148.069 39.112L153.389 41.52L151.149 46ZM197.597 0.863997C199.911 0.863997 202.599 1.144 205.661 1.704C208.722 2.264 210.962 2.86133 212.381 3.496V16.04H205.213C203.831 13.3893 202.207 11.448 200.341 10.216C198.511 8.984 196.514 8.368 194.349 8.368C192.519 8.368 190.839 8.984 189.309 10.216C187.815 11.4107 186.621 13.072 185.725 15.2C184.866 17.328 184.437 19.6987 184.437 22.312C184.437 25.2613 184.885 27.968 185.781 30.432C186.677 32.8587 188.039 34.8 189.869 36.256C191.698 37.712 193.957 38.44 196.645 38.44C200.191 38.44 205.194 36.872 211.653 33.736L214.229 37.88L203.925 45.888C202.133 46.4107 200.415 46.7467 198.773 46.896C197.167 47.0453 195.413 47.12 193.509 47.12C189.141 47.12 185.277 46.168 181.917 44.264C178.557 42.36 175.943 39.7467 174.077 36.424C172.21 33.064 171.277 29.256 171.277 25C171.277 20.632 172.658 16.6 175.421 12.904C178.221 9.17066 181.674 6.24 185.781 4.112C189.925 1.94666 193.863 0.863997 197.597 0.863997ZM245.291 0.863997C249.771 0.863997 253.728 1.816 257.163 3.72C260.597 5.624 263.248 8.256 265.115 11.616C266.981 14.976 267.915 18.784 267.915 23.04C267.915 27.408 266.496 31.44 263.659 35.136C260.859 38.832 257.368 41.7627 253.187 43.928C249.005 46.056 245.048 47.12 241.315 47.12C236.835 47.12 232.877 46.1867 229.443 44.32C226.045 42.416 223.395 39.784 221.491 36.424C219.624 33.064 218.691 29.256 218.691 25C218.691 20.632 220.091 16.6 222.891 12.904C225.728 9.17066 229.237 6.24 233.419 4.112C237.6 1.94666 241.557 0.863997 245.291 0.863997ZM242.043 8.368C240.176 8.368 238.459 8.984 236.891 10.216C235.36 11.4107 234.128 13.072 233.195 15.2C232.299 17.328 231.851 19.6987 231.851 22.312C231.851 25.4853 232.317 28.3787 233.251 30.992C234.184 33.6053 235.603 35.696 237.507 37.264C239.448 38.832 241.8 39.616 244.563 39.616C246.429 39.616 248.128 39.0187 249.659 37.824C251.227 36.592 252.459 34.912 253.355 32.784C254.288 30.656 254.755 28.2853 254.755 25.672C254.755 22.4613 254.288 19.5493 253.355 16.936C252.421 14.3227 251.003 12.2507 249.099 10.72C247.195 9.152 244.843 8.368 242.043 8.368ZM317.728 46H304.512L294.656 26.96L292.304 25.616L293.984 22.256H296.28C297.96 22.256 299.285 21.6587 300.255 20.464C301.226 19.232 301.712 17.5147 301.712 15.312C301.712 12.8853 301.077 10.944 299.808 9.488C298.576 7.99467 296.746 7.248 294.32 7.248C292.864 7.248 291.501 7.67733 290.232 8.536V39.784L296.672 41.464L294.432 45.944H272.928V41.968L278.192 37.376V8.144L271.808 6.464L274.048 1.984H285.024C288.16 1.984 291.258 1.872 294.32 1.648C296.56 1.49866 298.202 1.424 299.248 1.424C302.309 1.424 305.016 1.94666 307.368 2.992C309.757 4 311.605 5.4 312.912 7.192C314.218 8.984 314.872 11 314.872 13.24C314.872 15.7787 313.752 18.1307 311.512 20.296C309.309 22.4613 306.546 24.16 303.224 25.392L308.208 26.736L314.648 39.112L319.968 41.52L317.728 46ZM358.11 46H321.654V42.024L326.918 37.88V8.2L320.534 6.464L322.774 1.984H357.55L362.198 0.975999V16.096L358.278 17.776L351.222 7.304H338.958V20.856H344.39L348.478 15.088H352.454V30.992L347.974 33.232L344.222 26.176H338.958V40.68H350.718L358.838 29.088L362.758 30.768V47.008L358.11 46ZM41.784 80.096L37.864 81.776L30.528 71.304H18.544V84.856H23.976L28.064 79.088H32.04V96.112L27.56 98.352L23.696 90.176H18.544V103.56L28.904 105.52L26.664 110H1.24V106.024L6.504 101.88V72.2L0.12 70.464L2.36 65.984H37.136L41.784 64.976V80.096ZM81.6101 110H45.1541V106.024L50.4181 101.88V72.2L44.0341 70.464L46.2741 65.984H81.0501L85.6981 64.976V80.096L81.7781 81.776L74.7221 71.304H62.4581V84.856H67.8901L71.9781 79.088H75.9541V94.992L71.4741 97.232L67.7221 90.176H62.4581V104.68H74.2181L82.3381 93.088L86.2581 94.768V111.008L81.6101 110ZM140.198 110H117.014V106.024L123.678 102.552L120.822 95.496H104.47L102.174 101.208L110.014 105.52L107.774 110H89.0703V106.024L95.6223 101.152L109.062 67.776L121.046 64.92L136.614 102.888L142.438 105.52L140.198 110ZM112.534 75.168L106.542 90.176H118.638L112.534 75.168ZM183.993 81.216L180.073 82.896L171.953 71.304H167.753V104.008L174.193 105.52L171.953 110H150.449V106.024L155.713 101.88V71.304H151.681L143.561 82.896L139.641 81.216V64.976L144.289 65.984H179.345L183.993 64.976V81.216ZM230.056 74.104V92.64C230.056 96.56 229.048 99.92 227.032 102.72C225.054 105.52 222.59 107.629 219.64 109.048C216.691 110.429 213.816 111.12 211.016 111.12C207.246 111.12 203.867 110.392 200.88 108.936C197.931 107.443 195.616 105.408 193.936 102.832C192.294 100.219 191.472 97.288 191.472 94.04V71.976L185.088 70.464L187.328 65.984H208.832V69.96L203.512 74.104V92.472C203.512 95.9813 204.446 98.7253 206.312 100.704C208.179 102.645 211.016 103.616 214.824 103.616C216.28 103.616 217.718 103.205 219.136 102.384C220.592 101.525 221.787 100.293 222.72 98.688C223.691 97.0827 224.176 95.1973 224.176 93.032V72.816L217.232 70.464L219.472 65.984H235.376V69.96L230.056 74.104ZM283.001 110H269.785L259.929 90.96L257.577 89.616L259.257 86.256H261.553C263.233 86.256 264.558 85.6587 265.529 84.464C266.5 83.232 266.985 81.5147 266.985 79.312C266.985 76.8853 266.35 74.944 265.081 73.488C263.849 71.9947 262.02 71.248 259.593 71.248C258.137 71.248 256.774 71.6773 255.505 72.536V103.784L261.945 105.464L259.705 109.944H238.201V105.968L243.465 101.376V72.144L237.081 70.464L239.321 65.984H250.297C253.433 65.984 256.532 65.872 259.593 65.648C261.833 65.4987 263.476 65.424 264.521 65.424C267.582 65.424 270.289 65.9467 272.641 66.992C275.03 68 276.878 69.4 278.185 71.192C279.492 72.984 280.145 75 280.145 77.24C280.145 79.7787 279.025 82.1307 276.785 84.296C274.582 86.4613 271.82 88.16 268.497 89.392L273.481 90.736L279.921 103.112L285.241 105.52L283.001 110ZM323.384 110H286.928V106.024L292.192 101.88V72.2L285.808 70.464L288.048 65.984H322.824L327.472 64.976V80.096L323.552 81.776L316.496 71.304H304.232V84.856H309.664L313.752 79.088H317.728V94.992L313.248 97.232L309.496 90.176H304.232V104.68H315.992L324.112 93.088L328.032 94.768V111.008L323.384 110ZM355.596 101.208C355.596 100.125 355.166 99.08 354.308 98.072C353.449 97.064 352.385 96.1307 351.116 95.272C349.846 94.4133 348.092 93.3307 345.852 92.024C343.089 90.4187 340.868 89.0373 339.188 87.88C337.508 86.6853 336.07 85.304 334.876 83.736C333.681 82.168 333.084 80.432 333.084 78.528C333.084 76.6613 333.98 74.664 335.772 72.536C337.601 70.3707 339.822 68.56 342.436 67.104C345.049 65.6107 347.457 64.864 349.66 64.864C352.31 64.864 355.39 65.144 358.9 65.704C362.446 66.264 365.041 66.8613 366.684 67.496V80.6H359.516C358.134 77.6133 356.566 75.28 354.812 73.6C353.094 71.8827 351.302 71.024 349.436 71.024C348.316 71.024 347.438 71.3787 346.804 72.088C346.169 72.7973 345.852 73.712 345.852 74.832C345.852 76.0267 346.281 77.1653 347.14 78.248C348.036 79.2933 349.137 80.264 350.444 81.16C351.788 82.0187 353.598 83.1013 355.876 84.408C358.564 85.9387 360.729 87.2827 362.372 88.44C364.052 89.56 365.47 90.8853 366.628 92.416C367.785 93.9467 368.364 95.6453 368.364 97.512C368.364 99.3787 367.393 101.395 365.452 103.56C363.548 105.688 361.214 107.499 358.452 108.992C355.689 110.448 353.169 111.176 350.892 111.176C348.129 111.176 344.844 110.896 341.036 110.336C337.228 109.776 334.484 109.179 332.804 108.544V95.44H339.972C341.465 98.464 343.201 100.816 345.18 102.496C347.158 104.176 349.156 105.016 351.172 105.016C352.516 105.016 353.58 104.643 354.364 103.896C355.185 103.149 355.596 102.253 355.596 101.208Z" fill="white"/>
</svg>
