<svg width="326" height="13" viewBox="0 0 326 13" fill="none" xmlns="http://www.w3.org/2000/svg">
<path d="M6.19531 9.125C6.19531 8.55729 6.04167 8.1224 5.73438 7.82031C5.42708 7.51823 4.8724 7.22396 4.07031 6.9375C3.26823 6.65104 2.65365 6.35156 2.22656 6.03906C1.80469 5.72135 1.48698 5.36198 1.27344 4.96094C1.0651 4.55469 0.960938 4.09115 0.960938 3.57031C0.960938 2.66927 1.26042 1.92708 1.85938 1.34375C2.46354 0.760417 3.2526 0.46875 4.22656 0.46875C4.89323 0.46875 5.48698 0.619792 6.00781 0.921875C6.52865 1.21875 6.92969 1.63281 7.21094 2.16406C7.49219 2.69531 7.63281 3.27865 7.63281 3.91406H6.19531C6.19531 3.21094 6.02604 2.66667 5.6875 2.28125C5.34896 1.89583 4.86198 1.70312 4.22656 1.70312C3.64844 1.70312 3.20052 1.86458 2.88281 2.1875C2.5651 2.51042 2.40625 2.96354 2.40625 3.54688C2.40625 4.02604 2.57812 4.42708 2.92188 4.75C3.26562 5.07292 3.79688 5.36198 4.51562 5.61719C5.63542 5.98698 6.4349 6.44271 6.91406 6.98438C7.39844 7.52604 7.64062 8.23438 7.64062 9.10938C7.64062 10.0312 7.34115 10.7708 6.74219 11.3281C6.14323 11.8802 5.32812 12.1562 4.29688 12.1562C3.63542 12.1562 3.02344 12.013 2.46094 11.7266C1.90365 11.4349 1.46354 11.0286 1.14062 10.5078C0.822917 9.98177 0.664062 9.38021 0.664062 8.70312H2.10156C2.10156 9.40625 2.29688 9.95312 2.6875 10.3438C3.08333 10.7344 3.61979 10.9297 4.29688 10.9297C4.92708 10.9297 5.40104 10.7682 5.71875 10.4453C6.03646 10.1224 6.19531 9.68229 6.19531 9.125ZM17.8281 9.03125H13.9844L13.1016 12H11.6328L15.2969 0.625H16.5234L20.1953 12H18.7266L17.8281 9.03125ZM14.3594 7.79688H17.4609L15.9062 2.625L14.3594 7.79688ZM24.7422 12V0.625H27.9844C29.0208 0.625 29.7995 0.877604 30.3203 1.38281C30.8464 1.88802 31.1094 2.64583 31.1094 3.65625C31.1094 4.1875 30.9766 4.65625 30.7109 5.0625C30.4453 5.46875 30.0859 5.78385 29.6328 6.00781C30.1536 6.16406 30.5651 6.48438 30.8672 6.96875C31.1745 7.45312 31.3281 8.03646 31.3281 8.71875C31.3281 9.73958 31.0469 10.5417 30.4844 11.125C29.9271 11.7083 29.1302 12 28.0938 12H24.7422ZM26.1719 6.67969V10.7734H28.125C28.6667 10.7734 29.0964 10.5964 29.4141 10.2422C29.7318 9.88281 29.8906 9.38021 29.8906 8.73438C29.8906 7.36458 29.3125 6.67969 28.1562 6.67969H26.1719ZM26.1719 5.47656H28.0078C28.5026 5.47656 28.901 5.3099 29.2031 4.97656C29.5104 4.64323 29.6641 4.20052 29.6641 3.64844C29.6641 3.02344 29.526 2.57031 29.25 2.28906C28.974 2.0026 28.5521 1.85938 27.9844 1.85938H26.1719V5.47656ZM37.9141 10.7734H42.375V12H36.4766V0.625H37.9141V10.7734ZM52.5391 6.74219H48.5156V10.7734H53.2031V12H47.0859V0.625H53.125V1.85938H48.5156V5.51562H52.5391V6.74219ZM71.8438 8.39062C71.7812 9.60938 71.4375 10.5417 70.8125 11.1875C70.1927 11.8333 69.3151 12.1562 68.1797 12.1562C67.0391 12.1562 66.1328 11.724 65.4609 10.8594C64.7891 9.98958 64.4531 8.8125 64.4531 7.32812V5.26562C64.4531 3.78646 64.7969 2.61719 65.4844 1.75781C66.1771 0.898438 67.1198 0.46875 68.3125 0.46875C69.4115 0.46875 70.2604 0.799479 70.8594 1.46094C71.4635 2.11719 71.7917 3.05729 71.8438 4.28125H70.3984C70.3359 3.35417 70.1406 2.69271 69.8125 2.29688C69.4844 1.90104 68.9844 1.70312 68.3125 1.70312C67.5365 1.70312 66.9401 2.00781 66.5234 2.61719C66.1068 3.22135 65.8984 4.10938 65.8984 5.28125V7.36719C65.8984 8.51823 66.0911 9.40104 66.4766 10.0156C66.8672 10.6302 67.4349 10.9375 68.1797 10.9375C68.9245 10.9375 69.4609 10.7526 69.7891 10.3828C70.1172 10.013 70.3203 9.34896 70.3984 8.39062H71.8438ZM78.2266 10.7734H82.6875V12H76.7891V0.625H78.2266V10.7734ZM94.2812 7.3125C94.2812 8.86458 93.9505 10.0599 93.2891 10.8984C92.6276 11.737 91.6875 12.1562 90.4688 12.1562C89.2969 12.1562 88.3698 11.75 87.6875 10.9375C87.0104 10.1198 86.6589 8.96615 86.6328 7.47656V5.33594C86.6328 3.8151 86.9688 2.625 87.6406 1.76562C88.3125 0.901042 89.25 0.46875 90.4531 0.46875C91.651 0.46875 92.5833 0.882812 93.25 1.71094C93.9219 2.53385 94.2656 3.71094 94.2812 5.24219V7.3125ZM92.8516 5.32031C92.8516 4.11719 92.6536 3.22396 92.2578 2.64062C91.8672 2.05208 91.2656 1.75781 90.4531 1.75781C89.6667 1.75781 89.0703 2.05469 88.6641 2.64844C88.263 3.24219 88.0599 4.11719 88.0547 5.27344V7.3125C88.0547 8.47396 88.2552 9.35938 88.6562 9.96875C89.0625 10.5781 89.6667 10.8828 90.4688 10.8828C91.2708 10.8828 91.8646 10.6016 92.25 10.0391C92.6354 9.47656 92.8359 8.61458 92.8516 7.45312V5.32031ZM106.273 0.625V8.71094C106.263 9.78906 105.951 10.6328 105.336 11.2422C104.721 11.8516 103.865 12.1562 102.766 12.1562C101.641 12.1562 100.781 11.8594 100.188 11.2656C99.5938 10.6667 99.2917 9.8151 99.2812 8.71094V0.625H100.703V8.65625C100.703 9.42188 100.865 9.99479 101.188 10.375C101.516 10.75 102.042 10.9375 102.766 10.9375C103.495 10.9375 104.021 10.75 104.344 10.375C104.672 9.99479 104.836 9.42188 104.836 8.65625V0.625H106.273ZM111.477 12V0.625H114.188C115.516 0.625 116.547 1.04167 117.281 1.875C118.016 2.70312 118.383 3.86979 118.383 5.375V7.28125C118.383 8.78646 118.01 9.95052 117.266 10.7734C116.521 11.5911 115.44 12 114.023 12H111.477ZM112.906 1.85938V10.7734H114.055C115.06 10.7734 115.794 10.487 116.258 9.91406C116.721 9.33594 116.958 8.48177 116.969 7.35156V5.33594C116.969 4.13802 116.737 3.26042 116.273 2.70312C115.815 2.14062 115.12 1.85938 114.188 1.85938H112.906ZM130.289 12V0.625H133.531C134.568 0.625 135.346 0.877604 135.867 1.38281C136.393 1.88802 136.656 2.64583 136.656 3.65625C136.656 4.1875 136.523 4.65625 136.258 5.0625C135.992 5.46875 135.633 5.78385 135.18 6.00781C135.701 6.16406 136.112 6.48438 136.414 6.96875C136.721 7.45312 136.875 8.03646 136.875 8.71875C136.875 9.73958 136.594 10.5417 136.031 11.125C135.474 11.7083 134.677 12 133.641 12H130.289ZM131.719 6.67969V10.7734H133.672C134.214 10.7734 134.643 10.5964 134.961 10.2422C135.279 9.88281 135.438 9.38021 135.438 8.73438C135.438 7.36458 134.859 6.67969 133.703 6.67969H131.719ZM131.719 5.47656H133.555C134.049 5.47656 134.448 5.3099 134.75 4.97656C135.057 4.64323 135.211 4.20052 135.211 3.64844C135.211 3.02344 135.073 2.57031 134.797 2.28906C134.521 2.0026 134.099 1.85938 133.531 1.85938H131.719V5.47656ZM147.477 6.74219H143.453V10.7734H148.141V12H142.023V0.625H148.062V1.85938H143.453V5.51562H147.477V6.74219ZM160.406 12H158.969L154.414 3.23438V12H152.977V0.625H154.414L158.984 9.42969V0.625H160.406V12ZM171.336 6.74219H167.312V10.7734H172V12H165.883V0.625H171.922V1.85938H167.312V5.51562H171.336V6.74219ZM182.141 9.03125H178.297L177.414 12H175.945L179.609 0.625H180.836L184.508 12H183.039L182.141 9.03125ZM178.672 7.79688H181.773L180.219 2.625L178.672 7.79688ZM194.688 1.85938H191.695V12H190.266V1.85938H187.281V0.625H194.688V1.85938ZM206.812 12H205.375V6.74219H200.797V12H199.367V0.625H200.797V5.51562H205.375V0.625H206.812V12ZM221.133 8.41406L221.281 9.6875L221.508 8.5625L223.328 0.625H224.523L226.289 8.5625L226.516 9.71875L226.68 8.40625L228.07 0.625H229.5L227.234 12H225.945L224.047 3.71094L223.93 3.03906L223.812 3.71094L221.844 12H220.547L218.289 0.625H219.719L221.133 8.41406ZM239.109 9.03125H235.266L234.383 12H232.914L236.578 0.625H237.805L241.477 12H240.008L239.109 9.03125ZM235.641 7.79688H238.742L237.188 2.625L235.641 7.79688ZM250.992 9.125C250.992 8.55729 250.839 8.1224 250.531 7.82031C250.224 7.51823 249.669 7.22396 248.867 6.9375C248.065 6.65104 247.451 6.35156 247.023 6.03906C246.602 5.72135 246.284 5.36198 246.07 4.96094C245.862 4.55469 245.758 4.09115 245.758 3.57031C245.758 2.66927 246.057 1.92708 246.656 1.34375C247.26 0.760417 248.049 0.46875 249.023 0.46875C249.69 0.46875 250.284 0.619792 250.805 0.921875C251.326 1.21875 251.727 1.63281 252.008 2.16406C252.289 2.69531 252.43 3.27865 252.43 3.91406H250.992C250.992 3.21094 250.823 2.66667 250.484 2.28125C250.146 1.89583 249.659 1.70312 249.023 1.70312C248.445 1.70312 247.997 1.86458 247.68 2.1875C247.362 2.51042 247.203 2.96354 247.203 3.54688C247.203 4.02604 247.375 4.42708 247.719 4.75C248.062 5.07292 248.594 5.36198 249.312 5.61719C250.432 5.98698 251.232 6.44271 251.711 6.98438C252.195 7.52604 252.438 8.23438 252.438 9.10938C252.438 10.0312 252.138 10.7708 251.539 11.3281C250.94 11.8802 250.125 12.1562 249.094 12.1562C248.432 12.1562 247.82 12.013 247.258 11.7266C246.701 11.4349 246.26 11.0286 245.938 10.5078C245.62 9.98177 245.461 9.38021 245.461 8.70312H246.898C246.898 9.40625 247.094 9.95312 247.484 10.3438C247.88 10.7344 248.417 10.9297 249.094 10.9297C249.724 10.9297 250.198 10.7682 250.516 10.4453C250.833 10.1224 250.992 9.68229 250.992 9.125ZM263.992 12V0.625H266.703C268.031 0.625 269.062 1.04167 269.797 1.875C270.531 2.70312 270.898 3.86979 270.898 5.375V7.28125C270.898 8.78646 270.526 9.95052 269.781 10.7734C269.036 11.5911 267.956 12 266.539 12H263.992ZM265.422 1.85938V10.7734H266.57C267.576 10.7734 268.31 10.487 268.773 9.91406C269.237 9.33594 269.474 8.48177 269.484 7.35156V5.33594C269.484 4.13802 269.253 3.26042 268.789 2.70312C268.331 2.14062 267.635 1.85938 266.703 1.85938H265.422ZM277.625 12H276.195V0.625H277.625V12ZM288.102 9.125C288.102 8.55729 287.948 8.1224 287.641 7.82031C287.333 7.51823 286.779 7.22396 285.977 6.9375C285.174 6.65104 284.56 6.35156 284.133 6.03906C283.711 5.72135 283.393 5.36198 283.18 4.96094C282.971 4.55469 282.867 4.09115 282.867 3.57031C282.867 2.66927 283.167 1.92708 283.766 1.34375C284.37 0.760417 285.159 0.46875 286.133 0.46875C286.799 0.46875 287.393 0.619792 287.914 0.921875C288.435 1.21875 288.836 1.63281 289.117 2.16406C289.398 2.69531 289.539 3.27865 289.539 3.91406H288.102C288.102 3.21094 287.932 2.66667 287.594 2.28125C287.255 1.89583 286.768 1.70312 286.133 1.70312C285.555 1.70312 285.107 1.86458 284.789 2.1875C284.471 2.51042 284.312 2.96354 284.312 3.54688C284.312 4.02604 284.484 4.42708 284.828 4.75C285.172 5.07292 285.703 5.36198 286.422 5.61719C287.542 5.98698 288.341 6.44271 288.82 6.98438C289.305 7.52604 289.547 8.23438 289.547 9.10938C289.547 10.0312 289.247 10.7708 288.648 11.3281C288.049 11.8802 287.234 12.1562 286.203 12.1562C285.542 12.1562 284.93 12.013 284.367 11.7266C283.81 11.4349 283.37 11.0286 283.047 10.5078C282.729 9.98177 282.57 9.38021 282.57 8.70312H284.008C284.008 9.40625 284.203 9.95312 284.594 10.3438C284.99 10.7344 285.526 10.9297 286.203 10.9297C286.833 10.9297 287.307 10.7682 287.625 10.4453C287.943 10.1224 288.102 9.68229 288.102 9.125ZM301.875 12H300.438V6.74219H295.859V12H294.43V0.625H295.859V5.51562H300.438V0.625H301.875V12ZM312.805 6.74219H308.781V10.7734H313.469V12H307.352V0.625H313.391V1.85938H308.781V5.51562H312.805V6.74219ZM318.305 12V0.625H321.016C322.344 0.625 323.375 1.04167 324.109 1.875C324.844 2.70312 325.211 3.86979 325.211 5.375V7.28125C325.211 8.78646 324.839 9.95052 324.094 10.7734C323.349 11.5911 322.268 12 320.852 12H318.305ZM319.734 1.85938V10.7734H320.883C321.888 10.7734 322.622 10.487 323.086 9.91406C323.549 9.33594 323.786 8.48177 323.797 7.35156V5.33594C323.797 4.13802 323.565 3.26042 323.102 2.70312C322.643 2.14062 321.948 1.85938 321.016 1.85938H319.734Z" fill="#111111"/>
</svg>
