<svg width="42" height="20" viewBox="0 0 42 20" fill="none" xmlns="http://www.w3.org/2000/svg">
<path d="M7.41406 18H4.08594V4.96875L0.839844 6.22266V3.45703L7.0625 0.914062H7.41406V18ZM19.0859 19.4648H16.6602L21.7812 0.9375H24.207L19.0859 19.4648ZM41.3164 18H31.2617V15.6562L35.8789 9.78516C36.4648 8.97266 36.8945 8.26172 37.168 7.65234C37.4492 7.03516 37.5898 6.44531 37.5898 5.88281C37.5898 5.125 37.457 4.53125 37.1914 4.10156C36.9336 3.67188 36.5586 3.45703 36.0664 3.45703C35.5273 3.45703 35.0977 3.70703 34.7773 4.20703C34.4648 4.70703 34.3086 5.41016 34.3086 6.31641H30.9805C30.9805 5.26953 31.1953 4.3125 31.625 3.44531C32.0625 2.57812 32.6719 1.90625 33.4531 1.42969C34.2422 0.945313 35.1328 0.703125 36.125 0.703125C37.6484 0.703125 38.8281 1.125 39.6641 1.96875C40.5078 2.80469 40.9297 3.99609 40.9297 5.54297C40.9297 6.50391 40.6953 7.48047 40.2266 8.47266C39.7656 9.45703 38.9258 10.6719 37.707 12.1172L35.5156 15.2461H41.3164V18Z" fill="#111111"/>
</svg>
