<svg width="725" height="240" viewBox="0 0 725 240" fill="none" xmlns="http://www.w3.org/2000/svg">
<path d="M88.984 24.352L73.792 67.624L58.384 71.296L48.952 45.376L42.472 67.624L27.064 71.296L7.696 22.48L0.28 19.096L3.16 13.336H28.648V18.448L23.68 22.048L37.504 57.616L44.704 33.64L40.6 22.336L34.12 19.168L37 13.408H64.648V18.52L57.016 22.768L69.256 57.832L80.632 24.928L70.048 19.168L72.928 13.408H96.976V18.448L88.984 24.352ZM146.729 70H99.8566V64.888L106.625 59.56V21.4L98.4166 19.168L101.297 13.408H146.009L151.985 12.112V31.552L146.945 33.712L137.873 20.248H122.105V37.672H129.089L134.345 30.256H139.457V50.704L133.697 53.584L128.873 44.512H122.105V63.16H137.225L147.665 48.256L152.705 50.416V71.296L146.729 70ZM213.87 11.968C216.846 11.968 220.302 12.328 224.238 13.048C228.174 13.768 231.054 14.536 232.878 15.352V31.48H223.662C221.886 28.072 219.798 25.576 217.398 23.992C215.046 22.408 212.478 21.616 209.694 21.616C207.342 21.616 205.182 22.408 203.214 23.992C201.294 25.528 199.758 27.664 198.606 30.4C197.502 33.136 196.95 36.184 196.95 39.544C196.95 43.336 197.526 46.816 198.678 49.984C199.83 53.104 201.582 55.6 203.934 57.472C206.286 59.344 209.19 60.28 212.646 60.28C217.206 60.28 223.638 58.264 231.942 54.232L235.254 59.56L222.006 69.856C219.702 70.528 217.494 70.96 215.382 71.152C213.318 71.344 211.062 71.44 208.614 71.44C202.998 71.44 198.03 70.216 193.71 67.768C189.39 65.32 186.03 61.96 183.63 57.688C181.23 53.368 180.03 48.472 180.03 43C180.03 37.384 181.806 32.2 185.358 27.448C188.958 22.648 193.398 18.88 198.678 16.144C204.006 13.36 209.07 11.968 213.87 11.968ZM297.871 70H280.879L268.207 45.52L265.183 43.792L267.343 39.472H270.295C272.455 39.472 274.159 38.704 275.407 37.168C276.655 35.584 277.279 33.376 277.279 30.544C277.279 27.424 276.463 24.928 274.831 23.056C273.247 21.136 270.895 20.176 267.775 20.176C265.903 20.176 264.151 20.728 262.519 21.832V62.008L270.799 64.168L267.919 69.928H240.271V64.816L247.039 58.912V21.328L238.831 19.168L241.711 13.408H255.823C259.855 13.408 263.839 13.264 267.775 12.976C270.655 12.784 272.767 12.688 274.111 12.688C278.047 12.688 281.527 13.36 284.551 14.704C287.623 16 289.999 17.8 291.679 20.104C293.359 22.408 294.199 25 294.199 27.88C294.199 31.144 292.759 34.168 289.879 36.952C287.047 39.736 283.495 41.92 279.223 43.504L285.631 45.232L293.911 61.144L300.751 64.24L297.871 70ZM349.791 70H302.919V64.888L309.687 59.56V21.4L301.479 19.168L304.359 13.408H349.071L355.047 12.112V31.552L350.007 33.712L340.935 20.248H325.167V37.672H332.151L337.407 30.256H342.519V50.704L336.759 53.584L331.935 44.512H325.167V63.16H340.287L350.727 48.256L355.767 50.416V71.296L349.791 70ZM425.119 70H395.311V64.888L403.879 60.424L400.207 51.352H379.183L376.231 58.696L386.311 64.24L383.431 70H359.383V64.888L367.807 58.624L385.087 15.712L400.495 12.04L420.511 60.856L427.999 64.24L425.119 70ZM389.551 25.216L381.847 44.512H397.399L389.551 25.216ZM481.426 32.992L476.386 35.152L465.946 20.248H460.546V62.296L468.826 64.24L465.946 70H438.298V64.888L445.066 59.56V20.248H439.882L429.442 35.152L424.402 32.992V12.112L430.378 13.408H475.45L481.426 12.112V32.992ZM533.307 70H486.435V64.888L493.203 59.56V21.4L484.995 19.168L487.875 13.408H532.587L538.563 12.112V31.552L533.523 33.712L524.451 20.248H508.683V37.672H515.667L520.923 30.256H526.035V50.704L520.275 53.584L515.451 44.512H508.683V63.16H523.803L534.243 48.256L539.283 50.416V71.296L533.307 70ZM66.736 150H36.928V144.888L45.496 140.424L41.824 131.352H20.8L17.848 138.696L27.928 144.24L25.048 150H1V144.888L9.424 138.624L26.704 95.712L42.112 92.04L62.128 140.856L69.616 144.24L66.736 150ZM31.168 105.216L23.464 124.512H39.016L31.168 105.216ZM149.274 150.072H121.626V144.96L128.394 139.632V108.384L111.33 150.072H103.77L86.1299 107.952V141.36L94.4099 144.312L91.5299 150.072H71.8019V144.96L78.5699 139.632V102.264L70.3619 99.168L73.2419 93.408H96.2819L111.762 130.416L126.954 93.408H150.714V98.52L143.874 103.848V142.296L152.154 144.312L149.274 150.072ZM219.314 150H189.506V144.888L198.074 140.424L194.402 131.352H173.378L170.426 138.696L180.506 144.24L177.626 150H153.578V144.888L162.002 138.624L179.282 95.712L194.69 92.04L214.706 140.856L222.194 144.24L219.314 150ZM183.746 105.216L176.042 124.512H191.594L183.746 105.216ZM260.452 143.16L270.1 127.536L275.14 129.696V151.296L269.164 150H223.516V143.16L257.5 100.248H239.572L230.86 114.432L225.82 112.272V92.112L231.796 93.408H275.932V100.248L241.876 143.16H260.452ZM308.911 150H281.263V144.888L288.031 138.984V101.4L279.823 99.24L282.703 93.48H310.351V98.592L303.511 104.568V142.08L311.791 144.24L308.911 150ZM371.506 104.424V149.928H363.946L330.466 114.288V140.352L342.346 144.24L339.466 150H316.138V144.888L322.906 138.984V103.848L314.698 99.168L317.578 93.408H331.33L363.946 128.04V102.984L352.138 99.168L355.018 93.408H378.346V98.448L371.506 104.424ZM439.55 136.608L441.494 141.648L428.246 149.784C425.702 150.456 423.254 150.888 420.902 151.08C418.598 151.272 416.102 151.368 413.414 151.368C407.366 151.368 402.014 150.144 397.358 147.696C392.702 145.248 389.078 141.888 386.486 137.616C383.942 133.296 382.67 128.4 382.67 122.928C382.67 117.312 384.566 112.128 388.358 107.376C392.198 102.576 396.926 98.808 402.542 96.072C408.206 93.288 413.582 91.896 418.67 91.896C421.838 91.896 425.534 92.256 429.758 92.976C434.03 93.696 437.15 94.464 439.118 95.28V114.288H429.902C427.934 109.872 425.63 106.656 422.99 104.64C420.398 102.576 417.566 101.544 414.494 101.544C411.758 101.544 409.238 102.336 406.934 103.92C404.678 105.456 402.878 107.592 401.534 110.328C400.238 113.064 399.59 116.112 399.59 119.472C399.59 123.552 400.238 127.272 401.534 130.632C402.83 133.944 404.822 136.608 407.51 138.624C410.198 140.64 413.51 141.648 417.446 141.648H419.678C421.55 141.648 423.014 141.6 424.07 141.504V129.192L412.262 126.528L415.142 120.768H446.39V125.88L439.55 131.856V136.608ZM500.121 138.696C500.121 137.304 499.569 135.96 498.465 134.664C497.361 133.368 495.993 132.168 494.361 131.064C492.729 129.96 490.473 128.568 487.593 126.888C484.041 124.824 481.185 123.048 479.025 121.56C476.865 120.024 475.017 118.248 473.481 116.232C471.945 114.216 471.177 111.984 471.177 109.536C471.177 107.136 472.329 104.568 474.633 101.832C476.985 99.048 479.841 96.72 483.201 94.848C486.561 92.928 489.657 91.968 492.489 91.968C495.897 91.968 499.857 92.328 504.369 93.048C508.929 93.768 512.265 94.536 514.377 95.352V112.2H505.161C503.385 108.36 501.369 105.36 499.113 103.2C496.905 100.992 494.601 99.888 492.201 99.888C490.761 99.888 489.633 100.344 488.817 101.256C488.001 102.168 487.593 103.344 487.593 104.784C487.593 106.32 488.145 107.784 489.249 109.176C490.401 110.52 491.817 111.768 493.497 112.92C495.225 114.024 497.553 115.416 500.481 117.096C503.937 119.064 506.721 120.792 508.833 122.28C510.993 123.72 512.817 125.424 514.305 127.392C515.793 129.36 516.537 131.544 516.537 133.944C516.537 136.344 515.289 138.936 512.793 141.72C510.345 144.456 507.345 146.784 503.793 148.704C500.241 150.576 497.001 151.512 494.073 151.512C490.521 151.512 486.297 151.152 481.401 150.432C476.505 149.712 472.977 148.944 470.817 148.128V131.28H480.033C481.953 135.168 484.185 138.192 486.729 140.352C489.273 142.512 491.841 143.592 494.433 143.592C496.161 143.592 497.529 143.112 498.537 142.152C499.593 141.192 500.121 140.04 500.121 138.696ZM549.239 150H521.591V144.888L528.359 138.984V101.4L520.151 99.24L523.031 93.48H550.679V98.592L543.839 104.568V142.08L552.119 144.24L549.239 150ZM612.77 112.992L607.73 115.152L597.29 100.248H591.89V142.296L600.17 144.24L597.29 150H569.642V144.888L576.41 139.56V100.248H571.226L560.786 115.152L555.746 112.992V92.112L561.722 93.408H606.794L612.77 92.112V112.992ZM664.65 150H617.778V144.888L624.546 139.56V101.4L616.338 99.168L619.218 93.408H663.93L669.906 92.112V111.552L664.866 113.712L655.794 100.248H640.026V117.672H647.01L652.266 110.256H657.378V130.704L651.618 133.584L646.794 124.512H640.026V143.16H655.146L665.586 128.256L670.626 130.416V151.296L664.65 150ZM706.066 138.696C706.066 137.304 705.514 135.96 704.41 134.664C703.306 133.368 701.938 132.168 700.306 131.064C698.674 129.96 696.418 128.568 693.538 126.888C689.986 124.824 687.13 123.048 684.97 121.56C682.81 120.024 680.962 118.248 679.426 116.232C677.89 114.216 677.122 111.984 677.122 109.536C677.122 107.136 678.274 104.568 680.578 101.832C682.93 99.048 685.786 96.72 689.146 94.848C692.506 92.928 695.602 91.968 698.434 91.968C701.842 91.968 705.802 92.328 710.314 93.048C714.874 93.768 718.21 94.536 720.322 95.352V112.2H711.106C709.33 108.36 707.314 105.36 705.058 103.2C702.85 100.992 700.546 99.888 698.146 99.888C696.706 99.888 695.578 100.344 694.762 101.256C693.946 102.168 693.538 103.344 693.538 104.784C693.538 106.32 694.09 107.784 695.194 109.176C696.346 110.52 697.762 111.768 699.442 112.92C701.17 114.024 703.498 115.416 706.426 117.096C709.882 119.064 712.666 120.792 714.778 122.28C716.938 123.72 718.762 125.424 720.25 127.392C721.738 129.36 722.482 131.544 722.482 133.944C722.482 136.344 721.234 138.936 718.738 141.72C716.29 144.456 713.29 146.784 709.738 148.704C706.186 150.576 702.946 151.512 700.018 151.512C696.466 151.512 692.242 151.152 687.346 150.432C682.45 149.712 678.922 148.944 676.762 148.128V131.28H685.978C687.898 135.168 690.13 138.192 692.674 140.352C695.218 142.512 697.786 143.592 700.378 143.592C702.106 143.592 703.474 143.112 704.482 142.152C705.538 141.192 706.066 140.04 706.066 138.696ZM88.984 184.352L73.792 227.624L58.384 231.296L48.952 205.376L42.472 227.624L27.064 231.296L7.696 182.48L0.28 179.096L3.16 173.336H28.648V178.448L23.68 182.048L37.504 217.616L44.704 193.64L40.6 182.336L34.12 179.168L37 173.408H64.648V178.52L57.016 182.768L69.256 217.832L80.632 184.928L70.048 179.168L72.928 173.408H96.976V178.448L88.984 184.352ZM127.505 230H99.8566V224.888L106.625 218.984V181.4L98.4166 179.24L101.297 173.48H128.945V178.592L122.105 184.568V222.08L130.385 224.24L127.505 230ZM191.036 192.992L185.996 195.152L175.556 180.248H170.156V222.296L178.436 224.24L175.556 230H147.908V224.888L154.676 219.56V180.248H149.492L139.052 195.152L134.012 192.992V172.112L139.988 173.408H185.06L191.036 172.112V192.992ZM261.132 230H233.484V224.888L240.252 218.984V205.232H218.292V222.08L226.572 224.24L223.692 230H196.044V224.888L202.812 218.984V181.4L194.604 179.24L197.484 173.48H225.132V178.592L218.292 184.568V198.464H240.252V181.4L232.044 179.24L234.924 173.48H262.572V178.592L255.732 184.568V222.08L264.012 224.24L261.132 230ZM335.307 230H288.435V224.888L295.203 219.56V181.4L286.995 179.168L289.875 173.408H334.587L340.563 172.112V191.552L335.523 193.712L326.451 180.248H310.683V197.672H317.667L322.923 190.256H328.035V210.704L322.275 213.584L317.451 204.512H310.683V223.16H325.803L336.243 208.256L341.283 210.416V231.296L335.307 230ZM410.634 230H380.826V224.888L389.394 220.424L385.722 211.352H364.698L361.746 218.696L371.826 224.24L368.946 230H344.898V224.888L353.322 218.624L370.602 175.712L386.01 172.04L406.026 220.856L413.514 224.24L410.634 230ZM375.066 185.216L367.362 204.512H382.914L375.066 185.216ZM444.644 218.696C444.644 217.304 444.092 215.96 442.988 214.664C441.884 213.368 440.516 212.168 438.884 211.064C437.252 209.96 434.996 208.568 432.116 206.888C428.564 204.824 425.708 203.048 423.548 201.56C421.388 200.024 419.54 198.248 418.004 196.232C416.468 194.216 415.7 191.984 415.7 189.536C415.7 187.136 416.852 184.568 419.156 181.832C421.508 179.048 424.364 176.72 427.724 174.848C431.084 172.928 434.18 171.968 437.012 171.968C440.42 171.968 444.38 172.328 448.892 173.048C453.452 173.768 456.788 174.536 458.9 175.352V192.2H449.684C447.908 188.36 445.892 185.36 443.636 183.2C441.428 180.992 439.124 179.888 436.724 179.888C435.284 179.888 434.156 180.344 433.34 181.256C432.524 182.168 432.116 183.344 432.116 184.784C432.116 186.32 432.668 187.784 433.772 189.176C434.924 190.52 436.34 191.768 438.02 192.92C439.748 194.024 442.076 195.416 445.004 197.096C448.46 199.064 451.244 200.792 453.356 202.28C455.516 203.72 457.34 205.424 458.828 207.392C460.316 209.36 461.06 211.544 461.06 213.944C461.06 216.344 459.812 218.936 457.316 221.72C454.868 224.456 451.868 226.784 448.316 228.704C444.764 230.576 441.524 231.512 438.596 231.512C435.044 231.512 430.82 231.152 425.924 230.432C421.028 229.712 417.5 228.944 415.34 228.128V211.28H424.556C426.476 215.168 428.708 218.192 431.252 220.352C433.796 222.512 436.364 223.592 438.956 223.592C440.684 223.592 442.052 223.112 443.06 222.152C444.116 221.192 444.644 220.04 444.644 218.696ZM512.986 230H466.114V224.888L472.882 219.56V181.4L464.674 179.168L467.554 173.408H512.266L518.242 172.112V191.552L513.202 193.712L504.13 180.248H488.362V197.672H495.346L500.602 190.256H505.714V210.704L499.954 213.584L495.13 204.512H488.362V223.16H503.482L513.922 208.256L518.962 210.416V231.296L512.986 230Z" fill="white"/>
</svg>
