<svg width="160" height="47" viewBox="0 0 160 47" fill="none" xmlns="http://www.w3.org/2000/svg">
<path d="M136 47C149.255 47 160 36.4787 160 23.5C160 10.5213 149.255 0 136 0C122.745 0 112 10.5213 112 23.5C112 36.4787 122.745 47 136 47Z" fill="#333333"/>
<path fill-rule="evenodd" clip-rule="evenodd" d="M136 15.6665C133.827 15.6665 133.556 15.6756 132.701 15.7148C129.795 15.8454 128.181 17.4238 128.048 20.2699C128.009 21.1068 128 21.3731 128 23.4998C128 25.6279 128.009 25.8942 128.048 26.7298C128.181 29.5746 129.795 31.1556 132.701 31.2862C133.556 31.324 133.827 31.3332 136 31.3332C138.173 31.3332 138.445 31.324 139.3 31.2862C142.201 31.1556 143.821 29.5772 143.952 26.7298C143.991 25.8942 144 25.6279 144 23.4998C144 21.3731 143.991 21.1068 143.952 20.2699C143.821 17.4277 142.207 15.8441 139.3 15.7148C138.445 15.6756 138.173 15.6665 136 15.6665ZM136 17.0795C138.136 17.0795 138.389 17.0873 139.233 17.1252C141.403 17.2218 142.413 18.2284 142.513 20.3355C142.551 21.162 142.559 21.4087 142.559 23.5002C142.559 25.5917 142.551 25.8398 142.513 26.6649C142.413 28.7707 141.404 29.7799 139.233 29.8765C138.389 29.9131 138.137 29.9222 136 29.9222C133.864 29.9222 133.611 29.9144 132.768 29.8765C130.595 29.7786 129.588 28.7681 129.488 26.6649C129.451 25.8398 129.441 25.5917 129.441 23.5002C129.441 21.4087 129.451 21.1606 129.488 20.3355C129.587 18.2271 130.597 17.2205 132.768 17.1239C133.611 17.086 133.864 17.0795 136 17.0795ZM131.892 23.5001C131.892 21.278 133.732 19.4777 136 19.4777C138.268 19.4777 140.108 21.2793 140.108 23.5001C140.108 25.7221 138.268 27.5225 136 27.5225C133.732 27.5225 131.892 25.7221 131.892 23.5001ZM136 26.1113C134.527 26.1113 133.333 24.9428 133.333 23.5002C133.333 22.0588 134.527 20.889 136 20.889C137.472 20.889 138.668 22.0575 138.668 23.5002C138.668 24.9428 137.472 26.1113 136 26.1113ZM139.309 19.3195C139.309 18.7998 139.74 18.3795 140.269 18.3795C140.801 18.3795 141.231 18.7998 141.231 19.3195C141.231 19.8391 140.8 20.2595 140.269 20.2595C139.739 20.2595 139.309 19.8378 139.309 19.3195Z" fill="white"/>
<path d="M80 47C93.2548 47 104 36.4787 104 23.5C104 10.5213 93.2548 0 80 0C66.7452 0 56 10.5213 56 23.5C56 36.4787 66.7452 47 80 47Z" fill="#333333"/>
<path d="M88 19.1329C87.412 19.3888 86.7787 19.5611 86.1147 19.6395C86.7933 19.2413 87.312 18.612 87.5587 17.8613C86.924 18.2295 86.2213 18.4971 85.4733 18.6407C84.876 18.0154 84.0213 17.625 83.0787 17.625C80.9587 17.625 79.4013 19.5611 79.88 21.5717C77.1533 21.4372 74.7333 20.1578 73.1147 18.2138C72.2547 19.6577 72.6693 21.5482 74.1307 22.5052C73.5933 22.4882 73.088 22.3433 72.6453 22.1031C72.6093 23.5914 73.7 24.9844 75.2787 25.2951C74.8173 25.4179 74.3107 25.4466 73.796 25.35C74.2133 26.6268 75.428 27.5551 76.8627 27.5812C75.48 28.6413 73.7427 29.1152 72 28.9141C73.4533 29.8267 75.1773 30.3581 77.0307 30.3581C83.1267 30.3581 86.5693 25.3173 86.3613 20.7962C87.004 20.3445 87.56 19.7779 88 19.1329V19.1329Z" fill="white"/>
<path d="M24 47C37.2548 47 48 36.4787 48 23.5C48 10.5213 37.2548 0 24 0C10.7452 0 0 10.5213 0 23.5C0 36.4787 10.7452 47 24 47Z" fill="#333333"/>
<path d="M21.6667 20.8887H19V23.4998H21.6667V31.3332H25.6667V23.4998H28.0933L28.3333 20.8887H25.6667V19.8012C25.6667 19.1771 25.7947 18.9304 26.4107 18.9304H28.3333V15.6665H25.128C22.7307 15.6665 21.6667 16.7005 21.6667 18.6797V20.8887Z" fill="white"/>
</svg>
